<!DOCTYPE svg PUBLIC "-//W3C//DTD SVG 20010904//EN" "http://www.w3.org/TR/2001/REC-SVG-20010904/DTD/svg10.dtd">
<svg version="1.0" xmlns="http://www.w3.org/2000/svg" width="87px" height="84px" viewBox="0 0 870 840" preserveAspectRatio="xMidYMid meet">
<g id="layer1" fill="#14d132" stroke="none">
 <path d="M166 701 c-4 -5 -2 -12 3 -15 5 -4 12 -2 15 3 4 5 2 12 -3 15 -5 4 -12 2 -15 -3z"/>
 <path d="M70 621 c-6 -12 -6 -22 -1 -26 6 -3 15 3 21 14 6 12 6 22 1 26 -6 3 -15 -3 -21 -14z"/>
 </g>
<g id="layer2" fill="#7ea783" stroke="none">
 <path d="M306 811 c-4 -6 -13 -8 -20 -5 -17 7 -30 -12 -16 -21 6 -4 16 -2 23 3 7 6 15 11 20 11 8 1 11 11 4 17 -3 3 -8 1 -11 -5z"/>
 <path d="M565 811 c-7 -12 12 -24 25 -16 11 7 4 25 -10 25 -5 0 -11 -4 -15 -9z"/>
 <path d="M176 751 c-4 -5 -2 -12 3 -15 5 -4 12 -2 15 3 4 5 2 12 -3 15 -5 4 -12 2 -15 -3z"/>
 <path d="M356 751 c-4 -5 -2 -12 3 -15 5 -4 12 -2 15 3 4 5 2 12 -3 15 -5 4 -12 2 -15 -3z"/>
 <path d="M556 681 c-4 -5 -2 -12 3 -15 5 -4 12 -2 15 3 4 5 2 12 -3 15 -5 4 -12 2 -15 -3z"/>
 <path d="M818 595 c-7 -7 9 -52 24 -69 4 -6 8 1 8 15 0 28 -22 64 -32 54z"/>
 <path d="M844 459 c-3 -6 -1 -16 5 -22 8 -8 11 -5 11 11 0 24 -5 28 -16 11z"/>
 <path d="M844 339 c-3 -6 -1 -16 5 -22 8 -8 11 -5 11 11 0 24 -5 28 -16 11z"/>
 <path d="M416 191 c-4 -5 -2 -12 3 -15 5 -4 12 -2 15 3 4 5 2 12 -3 15 -5 4 -12 2 -15 -3z"/>
 <path d="M436 162 c-3 -6 1 -15 8 -21 8 -7 17 -8 20 -3 3 6 -1 15 -8 21 -8 7 -17 8 -20 3z"/>
 <path d="M536 151 c-4 -5 -2 -12 3 -15 5 -4 12 -2 15 3 4 5 2 12 -3 15 -5 4 -12 2 -15 -3z"/>
 <path d="M396 72 c-3 -6 1 -15 8 -21 8 -7 17 -8 20 -3 3 6 -1 15 -8 21 -8 7 -17 8 -20 3z"/>
 </g>
<g id="layer3" fill="#40cf41" stroke="none">
 <path d="M366 801 c-4 -5 -2 -12 3 -15 5 -4 12 -2 15 3 4 5 2 12 -3 15 -5 4 -12 2 -15 -3z"/>
 <path d="M266 751 c-4 -5 -2 -12 3 -15 5 -4 12 -2 15 3 4 5 2 12 -3 15 -5 4 -12 2 -15 -3z"/>
 <path d="M166 691 c-4 -5 -2 -12 3 -15 5 -4 12 -2 15 3 4 5 2 12 -3 15 -5 4 -12 2 -15 -3z"/>
 <path d="M206 661 c-4 -5 -2 -12 3 -15 5 -4 12 -2 15 3 4 5 2 12 -3 15 -5 4 -12 2 -15 -3z"/>
 <path d="M70 634 c-9 -10 -10 -18 -3 -25 8 -8 14 -5 22 9 13 25 -2 38 -19 16z"/>
 <path d="M186 621 c-4 -5 -2 -12 3 -15 5 -4 12 -2 15 3 4 5 2 12 -3 15 -5 4 -12 2 -15 -3z"/>
 <path d="M544 575 c-12 -18 -14 -29 -7 -36 7 -7 15 -1 26 20 19 38 4 51 -19 16z"/>
 <path d="M486 471 c-4 -5 -2 -12 3 -15 5 -4 12 -2 15 3 4 5 2 12 -3 15 -5 4 -12 2 -15 -3z"/>
 <path d="M466 441 c-4 -5 -2 -12 3 -15 5 -4 12 -2 15 3 4 5 2 12 -3 15 -5 4 -12 2 -15 -3z"/>
 <path d="M439 396 c-1 -3 -2 -9 -3 -13 -1 -5 -5 -13 -9 -20 -4 -6 -3 -14 3 -18 5 -3 11 -4 11 -1 1 3 2 9 3 14 1 4 5 12 9 19 4 6 3 14 -3 18 -5 3 -11 4 -11 1z"/>
 <path d="M666 261 c-4 -5 -2 -12 3 -15 5 -4 12 -2 15 3 4 5 2 12 -3 15 -5 4 -12 2 -15 -3z"/>
 <path d="M800 221 c-6 -12 -6 -22 -1 -26 6 -3 15 3 21 14 6 12 6 22 1 26 -6 3 -15 -3 -21 -14z"/>
 <path d="M406 211 c-4 -5 -2 -12 3 -15 5 -4 12 -2 15 3 4 5 2 12 -3 15 -5 4 -12 2 -15 -3z"/>
 </g>
<g id="layer4" fill="#5bd260" stroke="none">
 <path d="M375 800 c-4 -6 -10 -8 -15 -5 -5 3 -11 1 -14 -4 -4 -5 -2 -12 3 -15 5 -4 12 -2 16 4 4 6 10 8 15 5 5 -3 11 -1 14 4 4 5 2 12 -3 15 -5 4 -12 2 -16 -4z"/>
 <path d="M199 646 c-1 -3 -2 -9 -3 -13 -1 -5 -10 -21 -20 -36 -14 -21 -16 -31 -8 -39 8 -8 14 -3 23 18 7 16 13 31 13 34 1 3 5 10 9 17 4 6 3 14 -3 18 -5 3 -11 4 -11 1z"/>
 <path d="M523 527 c-19 -24 -23 -36 -14 -41 5 -3 16 5 25 19 16 24 6 45 -11 22z"/>
 <path d="M481 456 c-7 -8 -8 -17 -3 -20 6 -3 15 1 21 8 7 8 8 17 3 20 -6 3 -15 -1 -21 -8z"/>
 <path d="M450 411 c-6 -12 -6 -22 -1 -26 6 -3 15 3 21 14 6 12 6 22 1 26 -6 3 -15 -3 -21 -14z"/>
 <path d="M425 350 c-4 -6 -3 -16 3 -22 6 -6 12 -6 17 2 4 6 3 16 -3 22 -6 6 -12 6 -17 -2z"/>
 <path d="M671 276 c-7 -8 -8 -17 -3 -20 6 -3 15 1 21 8 7 8 8 17 3 20 -6 3 -15 -1 -21 -8z"/>
 <path d="M404 236 c-4 -10 -2 -22 4 -28 8 -8 13 -7 18 6 4 10 2 22 -4 28 -8 8 -13 7 -18 -6z"/>
 <path d="M792 198 c-23 -35 -18 -63 5 -32 26 34 33 53 24 58 -5 3 -18 -8 -29 -26z"/>
 <path d="M415 20 c-3 -5 1 -10 10 -10 9 0 13 5 10 10 -3 6 -8 10 -10 10 -2 0 -7 -4 -10 -10z"/>
 </g>
<g id="layer5" fill="#4e7752" stroke="none">
 <path d="M546 811 c-4 -5 -2 -12 3 -15 5 -4 12 -2 15 3 4 5 2 12 -3 15 -5 4 -12 2 -15 -3z"/>
 <path d="M286 801 c-4 -5 -2 -12 3 -15 5 -4 12 -2 15 3 4 5 2 12 -3 15 -5 4 -12 2 -15 -3z"/>
 <path d="M221 777 c-6 -8 -8 -17 -5 -20 10 -9 45 13 39 24 -9 13 -21 11 -34 -4z"/>
 <path d="M635 781 c-6 -11 29 -33 39 -24 7 7 -12 33 -25 33 -4 0 -10 -4 -14 -9z"/>
 <path d="M697 743 c-4 -6 12 -27 34 -49 22 -21 49 -54 60 -72 26 -40 46 -32 22 9 -24 41 -109 123 -116 112z"/>
 <path d="M556 671 c-4 -5 -2 -12 3 -15 5 -4 12 -2 15 3 4 5 2 12 -3 15 -5 4 -12 2 -15 -3z"/>
 <path d="M835 531 c-3 -5 -1 -12 5 -16 5 -3 10 1 10 9 0 18 -6 21 -15 7z"/>
 <path d="M156 401 c-4 -5 -2 -12 3 -15 5 -4 12 -2 15 3 4 5 2 12 -3 15 -5 4 -12 2 -15 -3z"/>
 <path d="M835 311 c-3 -5 -1 -12 5 -16 5 -3 10 1 10 9 0 18 -6 21 -15 7z"/>
 <path d="M217 273 c-3 -5 6 -25 22 -43 15 -19 30 -29 33 -24 4 5 -6 25 -21 43 -16 19 -31 30 -34 24z"/>
 <path d="M546 151 c-4 -5 -2 -12 3 -15 5 -4 12 -2 15 3 4 5 2 12 -3 15 -5 4 -12 2 -15 -3z"/>
 </g>
<g id="layer6" fill="#406b45" stroke="none">
 <path d="M666 761 c-4 -5 -2 -12 3 -15 5 -4 12 -2 15 3 4 5 2 12 -3 15 -5 4 -12 2 -15 -3z"/>
 <path d="M376 751 c-4 -5 -2 -12 3 -15 5 -4 12 -2 15 3 4 5 2 12 -3 15 -5 4 -12 2 -15 -3z"/>
 <path d="M466 751 c-4 -5 -2 -12 3 -15 5 -4 12 -2 15 3 4 5 2 12 -3 15 -5 4 -12 2 -15 -3z"/>
 <path d="M546 691 c-4 -5 -2 -12 4 -16 6 -4 8 -10 5 -15 -3 -5 -1 -11 4 -14 5 -4 12 -2 15 3 4 5 2 12 -4 16 -6 4 -8 10 -5 15 3 5 1 11 -4 14 -5 4 -12 2 -15 -3z"/>
 <path d="M796 621 c-4 -5 -2 -12 3 -15 5 -4 12 -2 15 3 4 5 2 12 -3 15 -5 4 -12 2 -15 -3z"/>
 <path d="M826 561 c-4 -5 -2 -12 3 -15 5 -4 12 -2 15 3 4 5 2 12 -3 15 -5 4 -12 2 -15 -3z"/>
 <path d="M835 521 c-3 -5 -1 -12 5 -16 5 -3 10 1 10 9 0 18 -6 21 -15 7z"/>
 <path d="M176 341 c-4 -5 -2 -12 3 -15 5 -4 12 -2 15 3 4 5 2 12 -3 15 -5 4 -12 2 -15 -3z"/>
 <path d="M197 304 c-3 -4 -2 -16 4 -26 8 -15 14 -17 22 -9 8 8 7 15 -4 26 -8 9 -18 13 -22 9z"/>
 <path d="M226 251 c-4 -5 -2 -12 3 -15 5 -4 12 -2 15 3 4 5 2 12 -3 15 -5 4 -12 2 -15 -3z"/>
 <path d="M256 212 c-3 -5 3 -17 13 -26 11 -10 22 -13 25 -8 3 5 -3 17 -13 26 -11 10 -22 13 -25 8z"/>
 <path d="M316 152 c-3 -6 1 -15 8 -21 8 -7 17 -8 20 -3 3 6 -1 15 -8 21 -8 7 -17 8 -20 3z"/>
 <path d="M435 150 c-3 -5 -4 -11 -1 -11 13 -3 22 -6 38 -13 22 -10 60 -4 56 9 -2 6 -17 10 -34 11 -16 0 -35 4 -41 7 -7 4 -14 3 -18 -3z"/>
 <path d="M366 102 c-3 -6 1 -15 8 -21 8 -7 17 -8 20 -3 3 6 -1 15 -8 21 -8 7 -17 8 -20 3z"/>
 </g>
<g id="layer7" fill="#a0dda4" stroke="none">
 <path d="M355 798 c1 -13 6 -21 11 -19 5 1 8 8 6 14 -2 6 4 5 12 -3 12 -9 20 -9 29 -2 7 6 41 12 75 13 106 3 80 19 -31 19 -101 0 -104 -1 -102 -22z"/>
 <path d="M375 760 c-3 -5 0 -13 8 -16 23 -8 102 0 102 11 0 14 -102 19 -110 5z"/>
 <path d="M81 656 c-7 -8 -8 -17 -3 -20 6 -3 15 1 21 8 7 8 8 17 3 20 -6 3 -15 -1 -21 -8z"/>
 <path d="M200 641 c-6 -12 -6 -22 -1 -26 6 -3 15 3 21 14 6 12 6 22 1 26 -6 3 -15 -3 -21 -14z"/>
 <path d="M564 616 c-4 -10 -2 -22 4 -28 8 -8 13 -7 18 6 4 10 2 22 -4 28 -8 8 -13 7 -18 -6z"/>
 <path d="M501 486 c-7 -8 -8 -17 -3 -20 6 -3 15 1 21 8 7 8 8 17 3 20 -6 3 -15 -1 -21 -8z"/>
 <path d="M460 421 c-6 -12 -6 -22 -1 -26 6 -3 15 3 21 14 6 12 6 22 1 26 -6 3 -15 -3 -21 -14z"/>
 <path d="M435 380 c-4 -6 -3 -16 3 -22 6 -6 12 -6 17 2 4 6 3 16 -3 22 -6 6 -12 6 -17 -2z"/>
 <path d="M416 311 c-4 -5 -2 -12 3 -15 5 -4 12 -2 15 3 4 5 2 12 -3 15 -5 4 -12 2 -15 -3z"/>
 <path d="M833 284 c-3 -8 -1 -20 6 -27 8 -8 11 -4 11 16 0 30 -7 35 -17 11z"/>
 <path d="M651 246 c-7 -8 -8 -17 -3 -20 6 -3 15 1 21 8 7 8 8 17 3 20 -6 3 -15 -1 -21 -8z"/>
 <path d="M786 181 c-4 -5 -2 -12 3 -15 5 -4 12 -2 15 3 4 5 2 12 -3 15 -5 4 -12 2 -15 -3z"/>
 </g>
<g id="layer8" fill="#3ad343" stroke="none">
 <path d="M425 810 c-8 -12 20 -24 35 -15 6 3 8 11 5 16 -8 12 -32 12 -40 -1z"/>
 <path d="M221 726 c-7 -8 -8 -17 -3 -20 6 -3 15 1 21 8 7 8 8 17 3 20 -6 3 -15 -1 -21 -8z"/>
 <path d="M446 701 c-4 -5 -2 -12 3 -15 5 -4 12 -2 15 3 4 5 2 12 -3 15 -5 4 -12 2 -15 -3z"/>
 <path d="M136 661 c-15 -16 -23 -31 -18 -35 5 -3 21 8 36 23 15 16 23 31 18 35 -5 3 -21 -8 -36 -23z"/>
 <path d="M486 681 c-4 -5 -2 -12 3 -15 5 -4 12 -2 15 3 4 5 2 12 -3 15 -5 4 -12 2 -15 -3z"/>
 <path d="M166 631 c-4 -5 -2 -12 3 -15 5 -4 12 -2 15 3 4 5 2 12 -3 15 -5 4 -12 2 -15 -3z"/>
 <path d="M86 621 c-4 -5 -2 -12 3 -15 5 -4 12 -2 15 3 4 5 2 12 -3 15 -5 4 -12 2 -15 -3z"/>
 <path d="M519 629 c-1 -2 -2 -15 -3 -29 -1 -14 -5 -31 -9 -37 -5 -7 -5 -18 -2 -23 9 -15 27 -1 21 16 -3 7 -1 16 4 19 10 6 8 40 -3 51 -4 4 -8 5 -8 3z"/>
 <path d="M136 586 c-9 -15 -14 -26 -10 -26 4 0 1 -6 -5 -14 -8 -9 -8 -16 -2 -20 5 -4 12 -2 16 4 3 5 3 10 -1 10 -4 0 3 11 16 25 16 18 21 28 13 36 -7 7 -15 2 -27 -15z"/>
 <path d="M506 511 c-4 -5 -2 -12 3 -15 5 -4 12 -2 15 3 4 5 2 12 -3 15 -5 4 -12 2 -15 -3z"/>
 <path d="M795 480 c-4 -6 -3 -16 3 -22 6 -6 12 -6 17 2 4 6 3 16 -3 22 -6 6 -12 6 -17 -2z"/>
 <path d="M446 439 c-15 -23 -12 -44 5 -34 5 4 13 15 19 25 15 28 -6 35 -24 9z"/>
 <path d="M127 343 c-4 -6 0 -18 7 -28 8 -11 16 -14 19 -8 4 6 0 18 -7 28 -8 11 -16 14 -19 8z"/>
 <path d="M156 281 c-4 -5 -2 -12 3 -15 5 -4 12 -2 15 3 4 5 2 12 -3 15 -5 4 -12 2 -15 -3z"/>
 <path d="M699 286 c-1 -3 -2 -9 -3 -13 -1 -5 -5 -13 -9 -20 -4 -6 -3 -14 3 -18 5 -3 11 -4 11 -1 1 3 2 9 3 14 1 4 5 12 9 19 4 6 3 14 -3 18 -5 3 -11 4 -11 1z"/>
 <path d="M186 221 c-4 -5 -2 -12 3 -15 5 -4 12 -2 15 3 4 5 2 12 -3 15 -5 4 -12 2 -15 -3z"/>
 <path d="M776 211 c-4 -5 -2 -12 3 -15 5 -4 12 -2 15 3 4 5 2 12 -3 15 -5 4 -12 2 -15 -3z"/>
 <path d="M636 171 c-10 -11 -13 -22 -8 -25 5 -3 17 3 26 13 10 11 13 22 8 25 -5 3 -17 -3 -26 -13z"/>
 <path d="M246 152 c-3 -5 5 -19 18 -31 13 -13 26 -18 30 -13 3 5 -5 19 -18 31 -13 13 -26 18 -30 13z"/>
 <path d="M505 100 c-3 -5 -2 -10 2 -12 13 -7 33 -3 36 6 3 12 -31 17 -38 6z"/>
 <path d="M306 91 c-4 -5 -2 -12 3 -15 5 -4 12 -2 15 3 4 5 2 12 -3 15 -5 4 -12 2 -15 -3z"/>
 </g>
<g id="layer9" fill="#1ca329" stroke="none">
 <path d="M376 811 c-4 -5 -2 -12 3 -15 5 -4 12 -2 15 3 4 5 2 12 -3 15 -5 4 -12 2 -15 -3z"/>
 <path d="M525 810 c-3 -5 -4 -11 -1 -11 16 -4 26 -7 31 -9 3 -1 8 -3 13 -4 4 -1 17 -7 29 -14 13 -7 24 -8 28 -3 3 6 -4 15 -15 21 -11 6 -20 8 -20 4 0 -3 -7 -1 -15 6 -8 7 -15 9 -15 5 0 -4 -6 -2 -14 4 -10 8 -16 9 -21 1z"/>
 <path d="M336 801 c-4 -5 -2 -12 3 -15 5 -4 12 -2 15 3 4 5 2 12 -3 15 -5 4 -12 2 -15 -3z"/>
 <path d="M166 719 c-25 -13 -35 -24 -29 -30 12 -12 86 28 77 42 -6 11 -1 12 -48 -12z"/>
 <path d="M325 730 c-10 -17 12 -37 25 -24 8 8 6 15 -4 23 -10 9 -16 9 -21 1z"/>
 <path d="M676 732 c-3 -6 1 -15 8 -21 8 -7 17 -8 20 -3 3 6 -1 15 -8 21 -8 7 -17 8 -20 3z"/>
 <path d="M375 720 c-3 -5 0 -13 9 -16 21 -8 71 -1 71 11 0 14 -72 19 -80 5z"/>
 <path d="M486 701 c-4 -5 -2 -12 3 -15 5 -4 12 -2 15 3 4 5 2 12 -3 15 -5 4 -12 2 -15 -3z"/>
 <path d="M101 666 c-7 -8 -8 -17 -3 -20 6 -3 15 1 21 8 7 8 8 17 3 20 -6 3 -15 -1 -21 -8z"/>
 <path d="M517 674 c-3 -4 -1 -16 5 -28 7 -11 13 -27 14 -34 6 -33 15 -45 25 -35 8 8 7 18 -2 34 -7 13 -14 30 -15 38 -3 18 -19 33 -27 25z"/>
 <path d="M767 614 c-3 -4 4 -25 15 -48 12 -22 22 -44 23 -48 0 -5 3 -8 8 -8 4 0 10 0 13 0 4 0 1 7 -6 15 -7 8 -10 15 -6 15 4 0 -3 18 -14 40 -22 42 -23 44 -33 34z"/>
 <path d="M153 567 c-19 -24 -23 -36 -14 -41 5 -3 16 5 25 19 16 24 6 45 -11 22z"/>
 <path d="M818 473 c-7 -14 -3 -33 6 -33 12 -1 17 28 6 35 -5 3 -10 2 -12 -2z"/>
 <path d="M136 371 c-4 -5 -2 -12 3 -15 5 -4 12 -2 15 3 4 5 2 12 -3 15 -5 4 -12 2 -15 -3z"/>
 <path d="M816 271 c-4 -5 -2 -12 3 -15 5 -4 12 -2 15 3 4 5 2 12 -3 15 -5 4 -12 2 -15 -3z"/>
 <path d="M216 212 c-3 -6 1 -15 8 -21 8 -7 17 -8 20 -3 3 6 -1 15 -8 21 -8 7 -17 8 -20 3z"/>
 <path d="M621 191 c-12 -16 -17 -32 -12 -35 5 -4 19 7 30 23 12 16 17 32 12 35 -5 4 -19 -7 -30 -23z"/>
 <path d="M406 191 c-4 -5 -2 -12 3 -15 5 -4 12 -2 15 3 4 5 2 12 -3 15 -5 4 -12 2 -15 -3z"/>
 <path d="M445 131 c-3 -6 3 -15 14 -21 12 -6 22 -6 26 -1 3 6 -3 15 -14 21 -12 6 -22 6 -26 1z"/>
 <path d="M545 120 c-4 -6 -10 -8 -15 -5 -5 3 -11 1 -14 -4 -4 -5 -2 -12 3 -15 5 -4 12 -2 16 4 4 6 10 8 15 5 5 -3 11 -1 14 4 4 5 2 12 -3 15 -5 4 -12 2 -16 -4z"/>
 <path d="M376 51 c-4 -5 -2 -12 3 -15 5 -4 12 -2 15 3 4 5 2 12 -3 15 -5 4 -12 2 -15 -3z"/>
 </g>
<g id="layer10" fill="#bfecc2" stroke="none">
 <path d="M406 801 c-4 -5 -2 -12 3 -15 5 -4 12 -2 15 3 4 5 2 12 -3 15 -5 4 -12 2 -15 -3z"/>
 <path d="M456 801 c-4 -5 -2 -12 3 -15 5 -4 12 -2 15 3 4 5 2 12 -3 15 -5 4 -12 2 -15 -3z"/>
 <path d="M211 776 c-7 -8 -8 -17 -3 -20 6 -3 15 1 21 8 7 8 8 17 3 20 -6 3 -15 -1 -21 -8z"/>
 <path d="M336 781 c-4 -5 -2 -12 3 -15 5 -4 12 -2 15 3 4 5 2 12 -3 15 -5 4 -12 2 -15 -3z"/>
 <path d="M276 731 c-4 -5 -2 -12 3 -15 5 -4 12 -2 15 3 4 5 2 12 -3 15 -5 4 -12 2 -15 -3z"/>
 <path d="M66 641 c-4 -5 -2 -12 3 -15 5 -4 12 -2 15 3 4 5 2 12 -3 15 -5 4 -12 2 -15 -3z"/>
 <path d="M296 641 c-4 -5 -2 -12 3 -15 5 -4 12 -2 15 3 4 5 2 12 -3 15 -5 4 -12 2 -15 -3z"/>
 <path d="M696 621 c-4 -5 -2 -12 4 -16 6 -4 8 -10 5 -15 -3 -5 -1 -11 4 -14 5 -4 12 -2 15 3 4 5 2 12 -4 16 -6 4 -8 10 -5 15 3 5 1 11 -4 14 -5 4 -12 2 -15 -3z"/>
 <path d="M46 601 c-4 -5 -2 -12 3 -15 5 -4 12 -2 15 3 4 5 2 12 -3 15 -5 4 -12 2 -15 -3z"/>
 <path d="M179 596 c-1 -3 -2 -9 -3 -13 -1 -5 -5 -13 -9 -20 -4 -6 -3 -14 3 -18 5 -3 11 -4 11 -1 1 3 2 9 3 14 1 4 5 12 9 19 4 6 3 14 -3 18 -5 3 -11 4 -11 1z"/>
 <path d="M544 564 c-4 -10 -9 -22 -11 -26 -2 -4 1 -9 6 -13 15 -9 35 35 22 48 -7 7 -12 5 -17 -9z"/>
 <path d="M29 548 c-7 -27 -8 -61 -2 -54 4 4 8 11 8 14 0 4 4 12 8 19 4 6 3 14 -3 18 -5 3 -10 5 -11 3z"/>
 <path d="M516 511 c-4 -5 -2 -12 3 -15 5 -4 12 -2 15 3 4 5 2 12 -3 15 -5 4 -12 2 -15 -3z"/>
 <path d="M476 441 c-4 -5 -2 -12 3 -15 5 -4 12 -2 15 3 4 5 2 12 -3 15 -5 4 -12 2 -15 -3z"/>
 <path d="M449 396 c-1 -3 -2 -9 -3 -13 -1 -5 -5 -13 -9 -20 -4 -6 -3 -14 3 -18 5 -3 11 -4 11 -1 1 3 2 9 3 14 1 4 5 12 9 19 4 6 3 14 -3 18 -5 3 -11 4 -11 1z"/>
 <path d="M706 361 c-4 -5 -2 -12 3 -15 5 -4 12 -2 15 3 4 5 2 12 -3 15 -5 4 -12 2 -15 -3z"/>
 <path d="M680 301 c-6 -12 -6 -22 -1 -26 6 -3 15 3 21 14 6 12 6 22 1 26 -6 3 -15 -3 -21 -14z"/>
 <path d="M416 301 c-4 -5 -2 -12 3 -15 5 -4 12 -2 15 3 4 5 2 12 -3 15 -5 4 -12 2 -15 -3z"/>
 <path d="M36 281 c-4 -5 -2 -12 4 -16 6 -4 8 -10 5 -15 -3 -5 -1 -11 4 -14 5 -4 12 -2 15 3 4 5 2 12 -4 16 -6 4 -8 10 -5 15 3 5 1 11 -4 14 -5 4 -12 2 -15 -3z"/>
 <path d="M820 245 c-7 -8 -9 -15 -5 -15 4 0 2 -6 -4 -14 -8 -9 -8 -16 -2 -20 5 -4 12 -2 16 4 3 5 3 10 -1 10 -4 0 1 9 10 19 10 11 13 22 8 25 -5 3 -15 -1 -22 -9z"/>
 <path d="M631 226 c-7 -8 -8 -17 -3 -20 6 -3 15 1 21 8 7 8 8 17 3 20 -6 3 -15 -1 -21 -8z"/>
 <path d="M416 201 c-4 -5 -2 -12 3 -15 5 -4 12 -2 15 3 4 5 2 12 -3 15 -5 4 -12 2 -15 -3z"/>
 <path d="M591 186 c-7 -8 -8 -17 -3 -20 6 -3 15 1 21 8 7 8 8 17 3 20 -6 3 -15 -1 -21 -8z"/>
 <path d="M96 171 c-4 -5 -2 -12 3 -15 5 -4 12 -2 15 3 4 5 2 12 -3 15 -5 4 -12 2 -15 -3z"/>
 <path d="M776 161 c-4 -5 -2 -12 3 -15 5 -4 12 -2 15 3 4 5 2 12 -3 15 -5 4 -12 2 -15 -3z"/>
 <path d="M515 151 c-7 -12 12 -24 25 -16 11 7 4 25 -10 25 -5 0 -11 -4 -15 -9z"/>
 <path d="M126 142 c-3 -5 8 -21 23 -36 16 -15 31 -23 35 -18 3 5 -8 21 -23 36 -16 15 -31 23 -35 18z"/>
 <path d="M416 102 c-3 -6 1 -15 8 -21 8 -7 17 -8 20 -3 3 6 -1 15 -8 21 -8 7 -17 8 -20 3z"/>
 <path d="M196 81 c-4 -5 -2 -12 3 -15 5 -4 12 -2 15 3 4 5 2 12 -3 15 -5 4 -12 2 -15 -3z"/>
 <path d="M696 81 c-4 -5 -2 -12 3 -15 5 -4 12 -2 15 3 4 5 2 12 -3 15 -5 4 -12 2 -15 -3z"/>
 <path d="M456 71 c-4 -5 -2 -12 3 -15 5 -4 12 -2 15 3 4 5 2 12 -3 15 -5 4 -12 2 -15 -3z"/>
 <path d="M417 54 c-8 -14 8 -37 22 -33 8 3 8 10 -2 23 -8 11 -17 15 -20 10z"/>
 <path d="M496 51 c-4 -5 -2 -12 3 -15 5 -4 12 -2 15 3 4 5 2 12 -3 15 -5 4 -12 2 -15 -3z"/>
 <path d="M255 40 c-6 -11 31 -33 47 -28 6 2 -1 12 -15 21 -15 9 -28 13 -32 7z"/>
 <path d="M535 40 c-3 -5 0 -13 9 -16 21 -8 61 -1 61 11 0 14 -62 19 -70 5z"/>
 <path d="M418 3 c7 -3 16 -2 19 1 4 3 -2 6 -13 5 -11 0 -14 -3 -6 -6z"/>
 </g>
<g id="layer11" fill="#619a65" stroke="none">
 <path d="M315 810 c-8 -13 20 -24 41 -16 20 8 9 26 -16 26 -10 0 -22 -5 -25 -10z"/>
 <path d="M556 811 c-4 -5 -2 -12 3 -15 5 -4 12 -2 15 3 4 5 2 12 -3 15 -5 4 -12 2 -15 -3z"/>
 <path d="M595 801 c-6 -11 29 -33 39 -24 7 7 -12 33 -25 33 -4 0 -10 -4 -14 -9z"/>
 <path d="M256 791 c-4 -5 -2 -12 3 -15 5 -4 12 -2 15 3 4 5 2 12 -3 15 -5 4 -12 2 -15 -3z"/>
 <path d="M196 761 c-4 -5 -2 -12 3 -15 5 -4 12 -2 15 3 4 5 2 12 -3 15 -5 4 -12 2 -15 -3z"/>
 <path d="M676 762 c-3 -6 1 -15 8 -21 8 -7 17 -8 20 -3 3 6 -1 15 -8 21 -8 7 -17 8 -20 3z"/>
 <path d="M366 751 c-4 -5 -2 -12 3 -15 5 -4 12 -2 15 3 4 5 2 12 -3 15 -5 4 -12 2 -15 -3z"/>
 <path d="M475 751 c-6 -11 29 -33 39 -24 7 7 -12 33 -25 33 -4 0 -10 -4 -14 -9z"/>
 <path d="M131 706 c-24 -24 -39 -46 -34 -49 6 -4 29 13 52 37 24 24 39 46 34 49 -6 4 -29 -13 -52 -37z"/>
 <path d="M156 553 c-8 -9 -8 -148 1 -157 4 -3 8 -16 10 -27 5 -35 34 -82 44 -72 5 5 1 26 -12 53 -17 36 -21 61 -20 121 2 70 -6 99 -23 82z"/>
 <path d="M847 503 c-9 -17 -7 -162 3 -168 6 -4 10 26 10 84 0 85 -3 102 -13 84z"/>
 <path d="M835 301 c-3 -5 -1 -12 5 -16 5 -3 10 1 10 9 0 18 -6 21 -15 7z"/>
 <path d="M826 261 c-4 -5 -2 -12 3 -15 5 -4 12 -2 15 3 4 5 2 12 -3 15 -5 4 -12 2 -15 -3z"/>
 <path d="M621 206 c-7 -8 -8 -17 -3 -20 6 -3 15 1 21 8 7 8 8 17 3 20 -6 3 -15 -1 -21 -8z"/>
 <path d="M426 171 c-4 -5 -2 -12 3 -15 5 -4 12 -2 15 3 4 5 2 12 -3 15 -5 4 -12 2 -15 -3z"/>
 <path d="M571 166 c-7 -8 -8 -17 -3 -20 6 -3 15 1 21 8 7 8 8 17 3 20 -6 3 -15 -1 -21 -8z"/>
 <path d="M386 81 c-4 -5 -2 -12 3 -15 5 -4 12 -2 15 3 4 5 2 12 -3 15 -5 4 -12 2 -15 -3z"/>
 <path d="M416 41 c-4 -5 -2 -12 3 -15 5 -4 12 -2 15 3 4 5 2 12 -3 15 -5 4 -12 2 -15 -3z"/>
 </g>
<g id="layer12" fill="#266f28" stroke="none">
 <path d="M295 801 c-7 -12 12 -24 25 -16 11 7 4 25 -10 25 -5 0 -11 -4 -15 -9z"/>
 <path d="M605 791 c-3 -6 3 -15 14 -21 12 -6 22 -6 26 -1 3 6 -3 15 -14 21 -12 6 -22 6 -26 1z"/>
 <path d="M240 775 c-7 -9 -15 -13 -18 -11 -8 9 -43 -15 -37 -25 4 -6 13 -5 24 1 10 5 20 7 23 5 3 -3 13 3 22 14 10 11 13 22 8 25 -5 3 -15 -1 -22 -9z"/>
 <path d="M449 753 c-1 -4 -1 -11 -1 -14 1 -3 -17 -5 -38 -5 -22 1 -38 -3 -37 -9 1 -5 22 -10 46 -10 34 0 45 4 47 18 1 9 -2 19 -7 23 -5 3 -10 2 -10 -3z"/>
 <path d="M676 751 c-4 -5 -2 -12 3 -15 5 -4 12 -2 15 3 4 5 2 12 -3 15 -5 4 -12 2 -15 -3z"/>
 <path d="M509 739 c-10 -52 6 -77 35 -56 16 12 15 14 -8 36 -15 14 -26 23 -27 20z"/>
 <path d="M696 721 c-4 -5 -2 -12 3 -15 5 -4 12 -2 15 3 4 5 2 12 -3 15 -5 4 -12 2 -15 -3z"/>
 <path d="M746 661 c-4 -5 -2 -12 3 -15 5 -4 12 -2 15 3 4 5 2 12 -3 15 -5 4 -12 2 -15 -3z"/>
 <path d="M776 612 c-8 -13 18 -34 29 -24 4 4 5 -3 2 -15 -7 -29 9 -39 22 -15 7 14 6 24 -4 38 -8 11 -15 15 -15 10 0 -5 -6 -3 -14 3 -8 7 -17 8 -20 3z"/>
 <path d="M839 515 c-1 -3 -2 -8 -3 -12 -1 -5 -5 -13 -9 -20 -4 -6 -3 -14 3 -18 5 -3 10 -5 11 -3 6 22 8 58 4 58 -3 0 -6 -2 -6 -5z"/>
 <path d="M151 382 c-6 -12 -10 -22 -9 -23 42 -11 54 -1 34 26 -13 18 -14 18 -25 -3z"/>
 <path d="M157 344 c-9 -10 22 -66 33 -59 6 4 4 18 -5 36 -17 31 -18 32 -28 23z"/>
 <path d="M196 261 c-4 -5 -2 -12 3 -15 5 -4 12 -2 15 3 4 5 2 12 -3 15 -5 4 -12 2 -15 -3z"/>
 <path d="M216 231 c-4 -5 -2 -12 3 -15 5 -4 12 -2 15 3 4 5 2 12 -3 15 -5 4 -12 2 -15 -3z"/>
 <path d="M246 192 c-6 -11 47 -65 57 -57 4 3 5 2 2 -2 -3 -3 4 -17 16 -29 17 -19 26 -21 41 -13 18 10 19 12 3 29 -10 11 -24 16 -33 13 -11 -5 -14 -2 -9 9 6 17 -25 53 -36 42 -4 -4 -13 -1 -21 5 -8 7 -17 8 -20 3z"/>
 <path d="M562 154 c-12 -8 -22 -12 -22 -8 0 4 -9 -1 -20 -11 -11 -10 -17 -22 -14 -27 3 -5 15 -1 25 8 11 10 27 19 36 20 21 3 37 20 26 27 -6 4 -19 -1 -31 -9z"/>
 <path d="M445 141 c-7 -12 12 -24 25 -16 11 7 4 25 -10 25 -5 0 -11 -4 -15 -9z"/>
 <path d="M365 70 c-3 -5 -1 -11 5 -15 5 -3 10 -3 10 1 0 3 6 1 14 -5 9 -8 16 -8 20 -2 7 10 -10 24 -31 27 -7 1 -15 -2 -18 -6z"/>
 </g>
<g id="layer13" fill="#26932a" stroke="none">
 <path d="M355 811 c-7 -12 12 -24 25 -16 11 7 4 25 -10 25 -5 0 -11 -4 -15 -9z"/>
 <path d="M535 810 c-3 -5 -4 -11 -1 -11 13 -3 22 -6 39 -14 11 -4 23 -3 29 3 8 8 7 13 -6 18 -9 4 -20 4 -23 0 -3 -3 -12 -1 -19 5 -8 7 -14 7 -19 -1z"/>
 <path d="M285 784 c-16 -9 -52 -27 -78 -40 -26 -14 -45 -29 -42 -34 3 -5 42 8 86 30 44 23 77 45 74 50 -8 12 -4 13 -40 -6z"/>
 <path d="M336 741 c-10 -15 20 -45 39 -37 17 6 17 7 0 26 -20 22 -31 25 -39 11z"/>
 <path d="M666 741 c-4 -5 -2 -12 3 -15 5 -4 12 -2 15 3 4 5 2 12 -3 15 -5 4 -12 2 -15 -3z"/>
 <path d="M445 720 c-7 -11 35 -31 49 -22 5 3 1 11 -9 19 -22 16 -32 16 -40 3z"/>
 <path d="M696 712 c-3 -5 3 -17 13 -26 11 -10 22 -13 25 -8 3 5 -3 17 -13 26 -11 10 -22 13 -25 8z"/>
 <path d="M121 686 c-7 -8 -8 -17 -3 -20 6 -3 15 1 21 8 7 8 8 17 3 20 -6 3 -15 -1 -21 -8z"/>
 <path d="M506 691 c-4 -5 -2 -12 3 -15 5 -4 12 -2 15 3 4 5 2 12 -3 15 -5 4 -12 2 -15 -3z"/>
 <path d="M527 664 c-7 -7 9 -52 25 -71 21 -26 26 -2 7 37 -20 42 -22 44 -32 34z"/>
 <path d="M736 661 c-4 -5 -2 -12 3 -15 5 -4 12 -2 15 3 4 5 2 12 -3 15 -5 4 -12 2 -15 -3z"/>
 <path d="M756 632 c-3 -6 1 -15 8 -21 8 -7 17 -8 20 -3 3 6 -1 15 -8 21 -8 7 -17 8 -20 3z"/>
 <path d="M786 581 c-4 -5 -2 -12 3 -15 5 -4 12 -2 15 3 4 5 2 12 -3 15 -5 4 -12 2 -15 -3z"/>
 <path d="M156 561 c-4 -5 -2 -12 3 -15 5 -4 12 -2 15 3 4 5 2 12 -3 15 -5 4 -12 2 -15 -3z"/>
 <path d="M805 540 c-3 -5 -3 -16 2 -22 4 -7 6 -20 5 -30 -2 -9 2 -19 8 -23 14 -9 25 24 12 37 -6 6 -8 16 -6 23 7 16 -12 29 -21 15z"/>
 <path d="M135 528 c-7 -19 0 -53 10 -51 13 4 17 51 5 58 -6 3 -12 0 -15 -7z"/>
 <path d="M136 451 c-4 -5 -2 -12 3 -15 5 -4 12 -2 15 3 4 5 2 12 -3 15 -5 4 -12 2 -15 -3z"/>
 <path d="M135 390 c-4 -6 -2 -17 4 -24 6 -7 8 -15 5 -18 -5 -6 39 -101 58 -125 6 -7 14 -11 18 -8 4 2 -9 37 -30 77 -20 40 -35 78 -33 85 5 15 -14 26 -22 13z"/>
 <path d="M824 376 c-4 -10 -2 -22 4 -28 8 -8 13 -7 18 6 4 10 2 22 -4 28 -8 8 -13 7 -18 -6z"/>
 <path d="M835 321 c-3 -5 -1 -12 5 -16 5 -3 10 1 10 9 0 18 -6 21 -15 7z"/>
 <path d="M826 281 c-4 -5 -2 -12 3 -15 5 -4 12 -2 15 3 4 5 2 12 -3 15 -5 4 -12 2 -15 -3z"/>
 <path d="M237 193 c-3 -5 25 -40 62 -77 38 -38 71 -64 74 -59 3 5 -25 40 -62 77 -38 38 -71 64 -74 59z"/>
 <path d="M417 184 c-6 -7 1 -33 16 -51 18 -24 27 -2 12 28 -16 31 -18 32 -28 23z"/>
 <path d="M590 175 c-7 -8 -9 -15 -5 -15 4 0 2 -6 -4 -14 -7 -8 -8 -17 -3 -20 11 -7 35 19 38 40 3 21 -12 26 -26 9z"/>
 <path d="M476 121 c-4 -5 -2 -12 3 -15 5 -4 12 -2 15 3 4 5 2 12 -3 15 -5 4 -12 2 -15 -3z"/>
 <path d="M525 121 c-7 -12 12 -24 25 -16 11 7 4 25 -10 25 -5 0 -11 -4 -15 -9z"/>
 <path d="M401 46 c-7 -8 -8 -17 -3 -20 6 -3 15 1 21 8 7 8 8 17 3 20 -6 3 -15 -1 -21 -8z"/>
 </g>
<g id="layer14" fill="#125616" stroke="none">
 <path d="M458 755 c-2 -3 -13 -6 -24 -8 -32 -4 -27 -21 8 -25 44 -5 75 -26 100 -68 21 -36 43 -37 32 -1 -12 40 -100 117 -116 102z"/>
 <path d="M686 742 c-3 -5 2 -16 11 -23 38 -31 104 -134 120 -187 22 -75 33 -86 33 -34 0 27 -11 63 -29 100 -31 60 -124 161 -135 144z"/>
 <path d="M155 380 c-4 -6 7 -40 24 -77 23 -48 55 -90 118 -154 47 -49 90 -86 95 -83 5 3 -27 43 -71 90 -56 59 -90 105 -116 159 -19 41 -38 75 -40 75 -2 0 -7 -5 -10 -10z"/>
 <path d="M515 141 c-32 -7 -37 -24 -8 -29 20 -3 61 22 47 30 -5 2 -22 2 -39 -1z"/>
 </g>
<g id="layer15" fill="#1d8e25" stroke="none">
 <path d="M305 797 c-10 -8 -14 -16 -9 -19 14 -9 56 11 49 22 -8 13 -18 13 -40 -3z"/>
 <path d="M596 791 c-3 -5 12 -20 34 -35 44 -29 66 -18 23 12 -44 30 -51 33 -57 23z"/>
 <path d="M218 756 c-55 -27 -80 -45 -73 -56 3 -4 34 8 70 27 36 19 63 39 60 44 -4 5 -7 9 -8 8 -1 0 -23 -11 -49 -23z"/>
 <path d="M335 730 c-8 -12 20 -24 35 -15 6 3 8 11 5 16 -8 12 -32 12 -40 -1z"/>
 <path d="M426 731 c-4 -5 -2 -12 3 -15 5 -4 12 -2 15 3 4 5 2 12 -3 15 -5 4 -12 2 -15 -3z"/>
 <path d="M466 722 c-3 -5 9 -19 25 -31 17 -13 37 -38 45 -56 7 -19 18 -36 22 -39 18 -11 21 7 5 38 -27 55 -85 107 -97 88z"/>
 <path d="M727 684 c-3 -6 4 -23 17 -39 13 -15 25 -24 29 -19 3 6 -4 23 -17 39 -13 15 -25 24 -29 19z"/>
 <path d="M777 604 c-6 -6 20 -61 33 -69 5 -3 7 -12 4 -19 -7 -17 12 -30 21 -16 4 6 1 17 -5 25 -7 8 -10 15 -6 15 8 0 -21 57 -33 64 -4 3 -11 3 -14 0z"/>
 <path d="M144 547 c-3 -9 -3 -20 0 -26 4 -5 3 -12 -2 -15 -12 -7 -9 -110 3 -113 6 -2 10 22 11 55 0 31 4 65 9 75 4 11 3 23 -3 29 -8 8 -13 7 -18 -5z"/>
 <path d="M825 468 c-9 -24 -2 -93 10 -93 14 0 19 85 6 98 -7 7 -12 5 -16 -5z"/>
 <path d="M147 363 c-4 -3 -2 -12 4 -20 6 -7 9 -13 5 -13 -9 0 32 -79 61 -118 13 -18 29 -30 34 -27 5 4 -2 21 -15 38 -23 32 -70 116 -71 129 0 11 -11 18 -18 11z"/>
 <path d="M825 348 c-9 -22 -2 -68 10 -71 14 -3 19 63 6 76 -7 7 -12 5 -16 -5z"/>
 <path d="M583 161 c-41 -37 -80 -46 -110 -28 -6 4 -14 3 -17 -2 -4 -5 -2 -12 4 -16 5 -3 10 -3 10 1 0 3 6 2 13 -4 13 -11 42 -11 53 0 3 4 11 5 18 2 14 -5 92 71 79 79 -4 3 -27 -12 -50 -32z"/>
 <path d="M416 171 c-4 -5 -2 -12 3 -15 5 -4 12 -2 15 3 4 5 2 12 -3 15 -5 4 -12 2 -15 -3z"/>
 <path d="M316 111 c-4 -5 -2 -12 3 -15 5 -4 12 -2 15 3 4 5 2 12 -3 15 -5 4 -12 2 -15 -3z"/>
 <path d="M365 60 c-3 -5 8 -16 24 -25 37 -18 50 -3 16 19 -28 19 -32 19 -40 6z"/>
 </g>
<g id="layer16" fill="#6ef874" stroke="none">
 <path d="M556 781 c-4 -5 -2 -12 3 -15 5 -4 12 -2 15 3 4 5 2 12 -3 15 -5 4 -12 2 -15 -3z"/>
 <path d="M616 751 c-4 -5 -2 -12 3 -15 5 -4 12 -2 15 3 4 5 2 12 -3 15 -5 4 -12 2 -15 -3z"/>
 <path d="M646 732 c-3 -5 5 -19 18 -31 13 -13 26 -18 30 -13 3 5 -5 19 -18 31 -13 13 -26 18 -30 13z"/>
 <path d="M300 675 c-7 -8 -9 -15 -5 -15 4 0 2 -6 -4 -14 -8 -10 -9 -16 -1 -21 10 -6 12 -5 14 18 0 6 14 13 30 15 27 3 28 2 22 -25 -15 -61 -18 -83 -12 -98 8 -21 7 -25 -1 -25 -5 0 -8 5 -8 10 0 6 -3 10 -7 10 -8 0 -9 -4 -7 -15 1 -3 2 -9 3 -15 1 -9 8 -12 21 -9 3 1 10 2 15 3 9 1 11 6 9 24 -3 26 4 89 12 97 14 15 11 41 -9 58 -23 21 -56 22 -72 2z"/>
 <path d="M697 674 c-3 -3 1 -18 10 -31 18 -27 23 -49 23 -100 1 -38 15 -51 29 -26 10 21 4 71 -12 92 -6 7 -12 20 -13 28 -3 20 -28 45 -37 37z"/>
 <path d="M295 561 c-7 -12 12 -24 25 -16 11 7 4 25 -10 25 -5 0 -11 -4 -15 -9z"/>
 <path d="M26 531 c-4 -5 -2 -12 3 -15 5 -4 12 -2 15 3 4 5 2 12 -3 15 -5 4 -12 2 -15 -3z"/>
 <path d="M367 474 c-3 -3 4 -21 15 -40 13 -23 24 -32 30 -26 6 6 6 17 -1 29 -13 25 -36 45 -44 37z"/>
 <path d="M729 406 c-1 -3 -2 -9 -3 -13 -1 -5 -5 -13 -9 -20 -4 -6 -3 -14 3 -18 5 -3 11 -4 11 -1 1 3 2 9 3 14 1 4 5 12 9 19 4 6 3 14 -3 18 -5 3 -11 4 -11 1z"/>
 <path d="M30 355 c-11 -13 -10 -19 6 -38 11 -12 28 -39 37 -60 37 -81 137 -175 233 -218 27 -12 57 -26 66 -30 24 -12 41 -11 32 2 -3 6 -35 24 -71 40 -126 57 -197 128 -257 262 -15 31 -28 57 -30 57 -2 0 -9 -7 -16 -15z"/>
 <path d="M396 361 c-4 -5 -2 -12 3 -15 5 -4 12 -2 15 3 4 5 2 12 -3 15 -5 4 -12 2 -15 -3z"/>
 <path d="M415 111 c-7 -12 20 -25 75 -35 3 -1 11 -5 18 -9 6 -5 17 -5 22 -2 13 8 2 26 -13 23 -7 -1 -26 6 -44 15 -36 19 -49 21 -58 8z"/>
 <path d="M555 71 c-8 -14 6 -20 56 -22 48 -3 73 6 64 22 -8 12 -112 12 -120 0z"/>
 </g>
<g id="layer17" fill="#d1f6d3" stroke="none">
 <path d="M415 800 c-8 -13 20 -24 41 -16 20 8 9 26 -16 26 -10 0 -22 -5 -25 -10z"/>
 <path d="M366 791 c-4 -5 -2 -12 3 -15 5 -4 12 -2 15 3 4 5 2 12 -3 15 -5 4 -12 2 -15 -3z"/>
 <path d="M496 791 c-4 -5 -2 -12 4 -16 5 -3 10 -3 10 1 0 3 7 1 15 -6 8 -7 15 -10 15 -6 0 3 18 -5 40 -19 21 -13 42 -20 45 -15 6 10 -34 40 -62 45 -10 2 -19 4 -20 5 -2 2 -6 3 -10 4 -5 1 -13 5 -20 9 -6 4 -14 3 -17 -2z"/>
 <path d="M296 751 c-10 -11 -13 -22 -8 -25 5 -3 17 3 26 13 10 11 13 22 8 25 -5 3 -17 -3 -26 -13z"/>
 <path d="M91 676 c-7 -8 -8 -17 -3 -20 6 -3 15 1 21 8 7 8 8 17 3 20 -6 3 -15 -1 -21 -8z"/>
 <path d="M667 684 c-9 -10 22 -66 33 -59 6 4 4 18 -5 36 -17 31 -18 32 -28 23z"/>
 <path d="M222 667 c-5 -6 -19 -31 -31 -54 -32 -63 -7 -61 27 2 17 30 27 57 22 60 -4 3 -12 -1 -18 -8z"/>
 <path d="M274 667 c-9 -25 0 -92 14 -93 6 -1 15 -3 20 -4 4 -1 11 -2 16 -1 5 1 4 -5 -4 -13 -7 -9 -9 -16 -5 -16 4 0 3 -6 -3 -13 -8 -9 0 -32 29 -85 23 -40 45 -70 50 -67 5 4 -1 25 -14 48 -12 23 -22 51 -23 62 0 12 -6 19 -14 17 -11 -3 -10 1 3 16 9 10 17 35 17 55 0 37 -16 59 -26 34 -11 -30 -34 -14 -34 24 0 39 -16 61 -26 36z"/>
 <path d="M315 661 c-6 -11 29 -33 39 -24 7 7 -12 33 -25 33 -4 0 -10 -4 -14 -9z"/>
 <path d="M56 621 c-4 -5 -2 -12 3 -15 5 -4 12 -2 15 3 4 5 2 12 -3 15 -5 4 -12 2 -15 -3z"/>
 <path d="M36 581 c-4 -5 -2 -12 3 -15 5 -4 12 -2 15 3 4 5 2 12 -3 15 -5 4 -12 2 -15 -3z"/>
 <path d="M556 581 c-4 -5 -2 -12 3 -15 5 -4 12 -2 15 3 4 5 2 12 -3 15 -5 4 -12 2 -15 -3z"/>
 <path d="M706 581 c-4 -5 -2 -12 3 -16 6 -3 8 -12 5 -19 -7 -17 12 -30 21 -16 4 6 2 17 -4 24 -6 7 -8 15 -5 18 3 3 1 9 -5 12 -5 4 -12 2 -15 -3z"/>
 <path d="M286 561 c-4 -5 -2 -12 3 -15 5 -4 12 -2 15 3 4 5 2 12 -3 15 -5 4 -12 2 -15 -3z"/>
 <path d="M844 529 c-3 -6 -1 -16 5 -22 8 -8 11 -5 11 11 0 24 -5 28 -16 11z"/>
 <path d="M20 514 c0 -8 5 -12 10 -9 6 4 8 11 5 16 -9 14 -15 11 -15 -7z"/>
 <path d="M526 521 c-4 -5 -2 -12 3 -15 5 -4 12 -2 15 3 4 5 2 12 -3 15 -5 4 -12 2 -15 -3z"/>
 <path d="M486 451 c-4 -5 -2 -12 3 -15 5 -4 12 -2 15 3 4 5 2 12 -3 15 -5 4 -12 2 -15 -3z"/>
 <path d="M466 421 c-4 -5 -2 -12 3 -15 5 -4 12 -2 15 3 4 5 2 12 -3 15 -5 4 -12 2 -15 -3z"/>
 <path d="M165 400 c-4 -6 -3 -16 3 -22 6 -6 12 -6 17 2 4 6 3 16 -3 22 -6 6 -12 6 -17 -2z"/>
 <path d="M716 391 c-4 -5 -2 -12 3 -15 5 -4 12 -2 15 3 4 5 2 12 -3 15 -5 4 -12 2 -15 -3z"/>
 <path d="M384 346 c-4 -10 -2 -22 4 -28 8 -8 13 -7 18 6 4 10 2 22 -4 28 -8 8 -13 7 -18 -6z"/>
 <path d="M696 341 c-4 -5 -2 -12 3 -15 5 -4 12 -2 15 3 4 5 2 12 -3 15 -5 4 -12 2 -15 -3z"/>
 <path d="M20 324 c0 -8 5 -12 10 -9 6 4 8 11 5 16 -9 14 -15 11 -15 -7z"/>
 <path d="M426 331 c-4 -5 -2 -12 3 -15 5 -4 12 -2 15 3 4 5 2 12 -3 15 -5 4 -12 2 -15 -3z"/>
 <path d="M27 293 c-4 -6 0 -18 7 -28 8 -11 16 -14 19 -8 4 6 0 18 -7 28 -8 11 -16 14 -19 8z"/>
 <path d="M416 291 c-4 -5 -2 -12 3 -15 5 -4 12 -2 15 3 4 5 2 12 -3 15 -5 4 -12 2 -15 -3z"/>
 <path d="M656 261 c-4 -5 -2 -12 3 -15 5 -4 12 -2 15 3 4 5 2 12 -3 15 -5 4 -12 2 -15 -3z"/>
 <path d="M56 232 c-7 -12 33 -74 44 -67 5 3 0 21 -11 40 -22 37 -25 40 -33 27z"/>
 <path d="M416 211 c-4 -5 -2 -12 3 -15 5 -4 12 -2 15 3 4 5 2 12 -3 15 -5 4 -12 2 -15 -3z"/>
 <path d="M790 181 c-6 -12 -6 -22 -1 -26 6 -3 15 3 21 14 6 12 6 22 1 26 -6 3 -15 -3 -21 -14z"/>
 <path d="M545 161 c-7 -12 12 -24 25 -16 11 7 4 25 -10 25 -5 0 -11 -4 -15 -9z"/>
 <path d="M106 151 c-4 -5 -2 -12 3 -15 5 -4 12 -2 15 3 4 5 2 12 -3 15 -5 4 -12 2 -15 -3z"/>
 <path d="M396 151 c-4 -5 -2 -12 3 -15 5 -4 12 -2 15 3 4 5 2 12 -3 15 -5 4 -12 2 -15 -3z"/>
 <path d="M396 101 c-14 -15 -14 -20 -3 -29 19 -16 30 -3 14 16 -8 11 -8 14 0 9 6 -4 14 -3 17 2 12 19 -12 20 -28 2z"/>
 <path d="M176 91 c-3 -5 9 -20 27 -33 46 -35 55 -39 61 -30 3 5 -14 23 -39 41 -24 17 -46 27 -49 22z"/>
 <path d="M436 81 c-4 -5 -2 -12 3 -15 5 -4 12 -2 15 3 4 5 2 12 -3 15 -5 4 -12 2 -15 -3z"/>
 <path d="M686 71 c-4 -5 -2 -12 3 -15 5 -4 12 -2 15 3 4 5 2 12 -3 15 -5 4 -12 2 -15 -3z"/>
 <path d="M465 61 c-3 -6 4 -15 15 -21 11 -6 20 -8 20 -4 0 3 7 1 15 -6 8 -6 19 -9 25 -5 13 8 3 26 -13 23 -7 -1 -22 3 -34 10 -13 7 -24 8 -28 3z"/>
 <path d="M646 52 c-3 -6 -15 -8 -25 -5 -10 3 -22 0 -26 -6 -9 -15 22 -26 38 -13 6 6 15 11 20 11 8 1 11 11 4 17 -3 3 -8 1 -11 -4z"/>
 <path d="M429 49 c0 -2 -2 -12 -4 -22 -2 -9 3 -17 10 -17 7 0 12 7 11 15 -2 14 -15 33 -17 24z"/>
 <path d="M275 19 c-3 -4 6 -11 20 -15 34 -9 40 -2 9 13 -13 6 -26 7 -29 2z"/>
 </g>
<g id="layer18" fill="#adfab0" stroke="none">
 <path d="M466 801 c-4 -5 -2 -12 3 -15 5 -4 12 -2 15 3 4 5 2 12 -3 15 -5 4 -12 2 -15 -3z"/>
 <path d="M505 790 c-3 -5 -4 -11 -1 -11 16 -4 26 -7 31 -9 3 -1 8 -3 13 -4 4 -1 17 -7 29 -14 13 -7 24 -8 28 -3 3 6 -4 15 -15 21 -11 6 -20 8 -20 4 0 -3 -7 -1 -15 6 -8 7 -15 9 -15 5 0 -4 -6 -2 -14 4 -10 8 -16 9 -21 1z"/>
 <path d="M616 742 c-3 -5 6 -20 20 -33 24 -22 67 -93 69 -111 0 -5 3 -8 8 -8 4 0 10 0 13 0 4 0 1 7 -6 15 -7 8 -10 15 -6 15 4 0 -2 17 -13 38 -23 44 -76 98 -85 84z"/>
 <path d="M251 706 c-13 -13 -18 -26 -13 -30 5 -3 19 5 31 18 13 13 18 26 13 30 -5 3 -19 -5 -31 -18z"/>
 <path d="M286 691 c-4 -5 -2 -12 3 -15 5 -4 12 -2 15 3 4 5 2 12 -3 15 -5 4 -12 2 -15 -3z"/>
 <path d="M302 656 c-12 -15 -9 -56 3 -56 6 0 10 10 10 23 0 14 7 22 18 22 9 0 16 4 14 10 -3 13 -36 14 -45 1z"/>
 <path d="M36 571 c-4 -5 -2 -12 3 -15 5 -4 12 -2 15 3 4 5 2 12 -3 15 -5 4 -12 2 -15 -3z"/>
 <path d="M286 573 c-7 -8 22 -63 34 -64 6 -1 15 -3 20 -4 6 -1 13 -3 17 -4 3 0 -1 -9 -10 -19 -22 -24 -9 -37 15 -16 15 14 16 20 5 32 -6 8 -11 17 -9 19 1 1 -1 3 -5 2 -7 -1 -27 31 -28 45 0 10 -31 17 -39 9z"/>
 <path d="M716 561 c-4 -5 -2 -12 3 -15 5 -4 12 -2 15 3 4 5 2 12 -3 15 -5 4 -12 2 -15 -3z"/>
 <path d="M20 444 c0 -8 5 -12 10 -9 6 4 8 11 5 16 -9 14 -15 11 -15 -7z"/>
 <path d="M357 444 c-3 -4 1 -21 10 -38 10 -17 16 -36 15 -43 -3 -16 15 -26 23 -13 4 6 1 17 -5 25 -7 8 -10 15 -6 15 4 0 0 14 -9 30 -17 32 -18 33 -28 24z"/>
 <path d="M20 371 c0 -34 4 -50 10 -46 11 7 8 80 -3 92 -4 3 -7 -17 -7 -46z"/>
 <path d="M716 381 c-4 -5 -2 -12 3 -15 5 -4 12 -2 15 3 4 5 2 12 -3 15 -5 4 -12 2 -15 -3z"/>
 <path d="M394 306 c-4 -10 -2 -22 4 -28 8 -8 13 -7 18 6 4 10 2 22 -4 28 -8 8 -13 7 -18 -6z"/>
 <path d="M26 301 c-4 -5 -2 -12 3 -15 5 -4 12 -2 15 3 4 5 2 12 -3 15 -5 4 -12 2 -15 -3z"/>
 <path d="M47 264 c-8 -8 25 -71 55 -105 39 -44 141 -124 181 -142 21 -9 50 -17 65 -17 25 0 24 1 -13 21 -119 63 -225 150 -256 210 -20 41 -22 43 -32 33z"/>
 <path d="M396 161 c-4 -5 -2 -12 3 -15 5 -4 12 -2 15 3 4 5 2 12 -3 15 -5 4 -12 2 -15 -3z"/>
 <path d="M751 136 c-13 -13 -18 -26 -13 -30 5 -3 19 5 31 18 13 13 18 26 13 30 -5 3 -19 -5 -31 -18z"/>
 <path d="M406 121 c-4 -5 -2 -12 3 -15 5 -4 12 -2 15 3 4 5 2 12 -3 15 -5 4 -12 2 -15 -3z"/>
 <path d="M446 81 c-7 -11 32 -38 67 -46 42 -11 40 13 -2 35 -44 22 -57 24 -65 11z"/>
 <path d="M657 64 c-38 -20 -24 -38 14 -19 16 9 27 20 24 25 -7 12 -4 13 -38 -6z"/>
 </g>
<g id="layer19" fill="#7df984" stroke="none">
 <path d="M476 801 c-4 -5 -2 -12 3 -15 5 -4 12 -2 15 3 4 5 2 12 -3 15 -5 4 -12 2 -15 -3z"/>
 <path d="M516 791 c-4 -5 -2 -12 3 -15 5 -4 12 -2 15 3 4 5 2 12 -3 15 -5 4 -12 2 -15 -3z"/>
 <path d="M575 771 c-3 -6 3 -15 14 -21 12 -6 22 -6 26 -1 3 6 -3 15 -14 21 -12 6 -22 6 -26 1z"/>
 <path d="M626 742 c-3 -6 1 -15 8 -21 8 -7 17 -8 20 -3 3 6 -1 15 -8 21 -8 7 -17 8 -20 3z"/>
 <path d="M301 706 c-7 -8 -8 -17 -3 -20 6 -3 15 1 21 8 7 8 8 17 3 20 -6 3 -15 -1 -21 -8z"/>
 <path d="M677 694 c-4 -4 -3 -12 2 -18 14 -16 41 -98 41 -123 0 -29 17 -38 28 -16 17 35 -48 180 -71 157z"/>
 <path d="M226 681 c-4 -5 -2 -12 3 -15 5 -4 12 -2 15 3 4 5 2 12 -3 15 -5 4 -12 2 -15 -3z"/>
 <path d="M283 664 c-7 -20 7 -38 20 -25 6 6 20 11 30 11 15 0 18 -5 13 -24 -9 -35 11 -43 26 -11 17 38 0 60 -46 61 -23 1 -40 -4 -43 -12z"/>
 <path d="M290 591 c-6 -12 -6 -22 -1 -26 6 -3 15 3 21 14 6 12 6 22 1 26 -6 3 -15 -3 -21 -14z"/>
 <path d="M46 591 c-4 -5 -2 -12 3 -15 5 -4 12 -2 15 3 4 5 2 12 -3 15 -5 4 -12 2 -15 -3z"/>
 <path d="M307 543 c-4 -6 0 -18 7 -28 8 -11 16 -14 19 -8 4 6 0 18 -7 28 -8 11 -16 14 -19 8z"/>
 <path d="M346 531 c-4 -5 -2 -12 3 -15 5 -4 12 -2 15 3 4 5 2 12 -3 15 -5 4 -12 2 -15 -3z"/>
 <path d="M367 463 c-4 -3 -2 -14 4 -25 12 -22 20 -60 23 -98 2 -42 21 -28 23 18 3 55 -30 125 -50 105z"/>
 <path d="M725 420 c-4 -6 -3 -16 3 -22 6 -6 12 -6 17 2 4 6 3 16 -3 22 -6 6 -12 6 -17 -2z"/>
 <path d="M706 351 c-4 -5 -2 -12 3 -15 5 -4 12 -2 15 3 4 5 2 12 -3 15 -5 4 -12 2 -15 -3z"/>
 <path d="M25 330 c-4 -6 1 -21 12 -33 10 -12 27 -38 37 -57 26 -48 57 -81 69 -73 6 4 7 1 2 -7 -9 -14 21 -42 109 -101 33 -21 69 -39 82 -39 13 0 26 -5 29 -10 3 -6 13 -10 21 -10 29 0 3 20 -69 53 -97 45 -189 130 -231 216 -32 65 -48 81 -61 61z"/>
 <path d="M406 131 c-4 -5 -2 -12 3 -15 5 -4 12 -2 15 3 4 5 2 12 -3 15 -5 4 -12 2 -15 -3z"/>
 <path d="M425 100 c-7 -11 6 -18 40 -23 11 -2 31 -9 44 -16 12 -7 32 -11 42 -8 10 3 22 1 25 -5 8 -13 73 -7 107 9 15 8 25 18 22 23 -4 6 -14 6 -27 -1 -22 -12 -93 -15 -118 -5 -8 3 -26 7 -40 9 -14 1 -35 8 -47 15 -26 15 -40 15 -48 2z"/>
 </g>
<g id="layer20" fill="#176c1b" stroke="none">
 <path d="M255 786 c-11 -6 -35 -20 -54 -30 -21 -11 -30 -21 -24 -27 12 -12 136 48 128 61 -8 13 -25 11 -50 -4z"/>
 <path d="M637 774 c-8 -8 106 -113 116 -107 9 5 -91 113 -103 113 -4 0 -9 -3 -13 -6z"/>
 <path d="M372 749 c-31 -12 -18 -30 21 -28 37 1 68 -5 95 -20 22 -12 36 -3 23 13 -5 6 -10 16 -12 21 -1 6 -10 9 -20 7 -9 -2 -20 2 -24 8 -8 12 -51 12 -83 -1z"/>
 <path d="M527 683 c-3 -3 3 -23 14 -45 14 -27 24 -37 31 -30 6 6 4 20 -6 40 -17 33 -30 45 -39 35z"/>
 <path d="M756 651 c-3 -5 3 -20 14 -34 11 -14 20 -29 20 -34 0 -5 5 -14 12 -21 14 -14 17 -30 24 -142 4 -47 10 -89 15 -95 13 -14 11 169 -3 202 -6 15 -12 34 -14 41 -3 15 -52 92 -59 92 -2 0 -6 -4 -9 -9z"/>
 <path d="M146 523 c-3 -3 -6 -37 -6 -75 0 -75 22 -141 71 -213 40 -59 188 -207 200 -199 6 3 -32 50 -85 103 -123 125 -156 190 -156 303 0 71 -8 97 -24 81z"/>
 <path d="M547 144 c-15 -8 -25 -19 -22 -24 9 -14 20 -12 46 8 29 24 12 35 -24 16z"/>
 <path d="M465 131 c-7 -12 12 -24 25 -16 11 7 4 25 -10 25 -5 0 -11 -4 -15 -9z"/>
 </g>
<g id="layer21" fill="#8ff993" stroke="none">
 <path d="M546 781 c-4 -5 -2 -12 3 -15 5 -4 12 -2 15 3 4 5 2 12 -3 15 -5 4 -12 2 -15 -3z"/>
 <path d="M316 771 c-4 -5 -2 -12 3 -15 5 -4 12 -2 15 3 4 5 2 12 -3 15 -5 4 -12 2 -15 -3z"/>
 <path d="M606 751 c-4 -5 -2 -12 3 -15 5 -4 12 -2 15 3 4 5 2 12 -3 15 -5 4 -12 2 -15 -3z"/>
 <path d="M646 721 c-4 -5 -2 -12 4 -16 15 -9 53 -86 58 -115 4 -33 20 -48 27 -27 4 8 1 26 -6 39 -7 13 -12 27 -11 31 3 11 -33 71 -52 86 -9 8 -16 8 -20 2z"/>
 <path d="M286 681 c-4 -5 -2 -12 3 -15 5 -4 12 -2 15 3 4 5 2 12 -3 15 -5 4 -12 2 -15 -3z"/>
 <path d="M344 656 c-8 -21 3 -49 16 -41 5 3 10 15 10 25 0 25 -18 36 -26 16z"/>
 <path d="M56 611 c-4 -5 -2 -12 3 -15 5 -4 12 -2 15 3 4 5 2 12 -3 15 -5 4 -12 2 -15 -3z"/>
 <path d="M36 561 c-4 -5 -2 -12 3 -15 5 -4 12 -2 15 3 4 5 2 12 -3 15 -5 4 -12 2 -15 -3z"/>
 <path d="M725 528 c-9 -24 -1 -113 10 -111 14 4 19 103 6 116 -7 7 -12 5 -16 -5z"/>
 <path d="M316 512 c-3 -5 6 -25 20 -46 14 -20 32 -53 40 -72 8 -19 19 -32 24 -29 12 8 7 37 -14 87 -9 21 -16 41 -16 45 0 5 -4 8 -9 8 -5 0 -13 3 -17 8 -10 9 -22 9 -28 -1z"/>
 <path d="M20 440 c0 -39 4 -69 8 -66 12 7 13 124 2 131 -6 4 -10 -22 -10 -65z"/>
 <path d="M696 331 c-4 -5 -2 -12 3 -15 5 -4 12 -2 15 3 4 5 2 12 -3 15 -5 4 -12 2 -15 -3z"/>
 <path d="M395 320 c-3 -5 -2 -10 2 -12 13 -7 33 -3 36 6 3 12 -31 17 -38 6z"/>
 <path d="M27 314 c-12 -13 54 -124 100 -169 81 -78 197 -145 250 -145 26 0 -4 28 -37 35 -72 16 -208 131 -250 211 -23 45 -53 78 -63 68z"/>
 <path d="M395 278 c-10 -24 -1 -123 10 -121 14 4 19 113 6 126 -7 7 -12 5 -16 -5z"/>
 <path d="M726 111 c-15 -16 -23 -31 -18 -35 5 -3 21 8 36 23 15 16 23 31 18 35 -5 3 -21 -8 -36 -23z"/>
 <path d="M435 90 c-3 -6 2 -13 12 -16 10 -3 38 -15 63 -25 47 -21 136 -23 134 -4 -1 6 -30 15 -65 21 -35 6 -77 16 -92 23 -35 14 -44 14 -52 1z"/>
 </g>
<g id="layer22" fill="#2ab130" stroke="none">
 <path d="M387 814 c-4 -4 -18 -9 -32 -10 -50 -5 -275 -141 -275 -165 0 -23 24 -14 69 23 66 57 206 129 253 132 10 1 18 6 18 11 1 12 -23 18 -33 9z"/>
 <path d="M505 811 c-3 -5 -1 -12 5 -16 12 -7 30 2 30 16 0 12 -27 12 -35 0z"/>
 <path d="M546 801 c-4 -5 -2 -12 4 -16 5 -3 10 -3 10 1 0 3 6 1 14 -5 10 -8 16 -9 21 -1 3 5 4 11 1 11 -3 1 -9 2 -13 3 -5 1 -13 5 -20 9 -6 4 -14 3 -17 -2z"/>
 <path d="M616 771 c-3 -5 5 -16 19 -25 24 -16 45 -6 22 11 -24 19 -36 23 -41 14z"/>
 <path d="M314 718 c-4 -5 -2 -14 4 -20 12 -12 63 -7 63 7 0 14 -60 25 -67 13z"/>
 <path d="M445 710 c-3 -6 4 -14 17 -19 36 -14 59 -46 65 -90 6 -45 20 -62 29 -36 22 57 -82 192 -111 145z"/>
 <path d="M707 694 c-3 -4 4 -21 17 -38 33 -44 64 -107 76 -158 12 -49 13 -180 1 -245 -10 -52 0 -63 24 -26 18 27 22 123 9 233 -9 78 -105 255 -127 234z"/>
 <path d="M150 578 c-28 -38 -30 -47 -30 -126 0 -79 3 -92 39 -166 32 -67 56 -97 134 -174 72 -70 101 -92 121 -92 16 0 25 4 21 10 -3 6 -13 10 -22 10 -8 0 -53 37 -100 82 -65 64 -93 100 -124 161 -36 74 -39 85 -39 166 0 77 3 91 25 121 21 28 25 50 9 50 -2 0 -17 -19 -34 -42z"/>
 <path d="M649 234 c-13 -14 -23 -29 -21 -32 1 -4 -4 -7 -10 -7 -7 0 -12 -8 -10 -17 6 -36 -101 -80 -135 -55 -6 4 -14 4 -17 -2 -4 -5 -2 -12 4 -16 5 -3 10 -3 10 1 0 3 6 1 13 -5 16 -13 63 -9 94 7 28 15 99 97 106 122 8 31 -7 32 -34 4z"/>
 <path d="M409 207 c-5 -25 -4 -34 3 -50 5 -10 13 -15 19 -12 5 4 5 15 -3 28 -6 12 -10 24 -9 25 2 2 0 6 -3 10 -3 3 -7 2 -7 -1z"/>
 </g>
<g id="layer23" fill="#5cf765" stroke="none">
 <path d="M486 801 c-4 -5 -2 -12 3 -15 5 -4 12 -2 15 3 4 5 2 12 -3 15 -5 4 -12 2 -15 -3z"/>
 <path d="M526 791 c-4 -5 -2 -12 3 -15 5 -4 12 -2 15 3 4 5 2 12 -3 15 -5 4 -12 2 -15 -3z"/>
 <path d="M326 781 c-4 -5 -2 -12 3 -15 5 -4 12 -2 15 3 4 5 2 12 -3 15 -5 4 -12 2 -15 -3z"/>
 <path d="M566 781 c-4 -5 14 -21 39 -34 41 -23 72 -23 42 1 -27 21 -76 41 -81 33z"/>
 <path d="M286 751 c-10 -11 -13 -22 -8 -25 5 -3 17 3 26 13 10 11 13 22 8 25 -5 3 -17 -3 -26 -13z"/>
 <path d="M686 692 c-3 -6 1 -15 8 -21 8 -7 17 -8 20 -3 3 6 -1 15 -8 21 -8 7 -17 8 -20 3z"/>
 <path d="M296 681 c-4 -5 -2 -12 3 -15 5 -4 12 -2 15 3 4 5 2 12 -3 15 -5 4 -12 2 -15 -3z"/>
 <path d="M357 684 c-3 -3 -1 -14 6 -24 8 -14 8 -25 -2 -44 -19 -34 -8 -131 16 -158 12 -13 20 -42 23 -82 3 -33 10 -61 15 -61 17 0 17 101 0 135 -11 21 -16 58 -16 117 0 99 -16 143 -42 117z"/>
 <path d="M216 671 c-4 -5 -2 -12 3 -15 5 -4 12 -2 15 3 4 5 2 12 -3 15 -5 4 -12 2 -15 -3z"/>
 <path d="M716 652 c-3 -5 2 -21 10 -37 16 -30 17 -62 8 -143 -4 -37 -2 -58 8 -69 7 -10 8 -14 1 -10 -6 4 -14 3 -17 -2 -15 -23 14 -19 33 5 29 37 25 159 -7 222 -23 44 -27 48 -36 34z"/>
 <path d="M285 630 c-4 -6 -3 -16 3 -22 6 -6 12 -6 17 2 4 6 3 16 -3 22 -6 6 -12 6 -17 -2z"/>
 <path d="M49 586 c-1 -3 -2 -9 -3 -13 -1 -5 -5 -13 -9 -20 -4 -6 -3 -14 3 -18 5 -3 11 -4 11 -1 1 3 2 9 3 14 1 4 5 12 9 19 4 6 3 14 -3 18 -5 3 -11 4 -11 1z"/>
 <path d="M306 551 c-4 -5 -2 -12 3 -15 5 -4 12 -2 15 3 4 5 2 12 -3 15 -5 4 -12 2 -15 -3z"/>
 <path d="M27 483 c-4 -3 -7 -34 -7 -68 0 -44 5 -66 16 -75 8 -8 22 -29 30 -49 43 -102 146 -206 249 -252 78 -35 87 -16 10 22 -101 49 -193 143 -228 232 -17 43 -27 86 -27 120 0 59 -21 93 -43 70z"/>
 <path d="M696 321 c-4 -5 -2 -12 3 -15 5 -4 12 -2 15 3 4 5 2 12 -3 15 -5 4 -12 2 -15 -3z"/>
 <path d="M404 286 c-4 -10 -2 -22 4 -28 8 -8 13 -7 18 6 4 10 2 22 -4 28 -8 8 -13 7 -18 -6z"/>
 <path d="M407 144 c-13 -13 7 -35 50 -54 25 -11 49 -18 53 -15 5 3 11 1 15 -5 10 -15 158 -13 180 4 18 13 18 14 -2 24 -13 8 -31 8 -52 2 -79 -22 -174 -7 -221 35 -9 8 -19 12 -23 9z"/>
 <path d="M408 3 c7 -3 16 -2 19 1 4 3 -2 6 -13 5 -11 0 -14 -3 -6 -6z"/>
 </g>
<g id="layer24" fill="#32d139" stroke="none">
 <path d="M416 811 c-4 -5 -2 -12 3 -15 5 -4 12 -2 15 3 4 5 2 12 -3 15 -5 4 -12 2 -15 -3z"/>
 <path d="M455 811 c-7 -13 17 -24 40 -19 9 1 16 8 16 13 0 14 -48 19 -56 6z"/>
 <path d="M536 801 c-4 -5 -2 -12 4 -16 5 -3 10 -3 10 1 0 3 7 1 15 -6 8 -7 15 -9 15 -5 0 4 6 2 14 -4 10 -8 16 -9 21 -1 3 5 4 11 1 11 -16 4 -26 7 -31 9 -3 1 -8 3 -12 4 -5 1 -13 5 -20 9 -6 4 -14 3 -17 -2z"/>
 <path d="M274 764 c-69 -36 -204 -139 -204 -155 0 -24 24 -15 66 26 55 52 78 69 154 108 64 33 75 43 62 51 -5 3 -40 -11 -78 -30z"/>
 <path d="M626 761 c-4 -5 -2 -12 3 -15 5 -4 12 -2 15 3 4 5 2 12 -3 15 -5 4 -12 2 -15 -3z"/>
 <path d="M656 742 c-3 -5 8 -21 23 -36 16 -15 31 -23 35 -18 3 5 -8 21 -23 36 -16 15 -31 23 -35 18z"/>
 <path d="M377 714 c-13 -13 5 -24 39 -24 46 0 70 -14 90 -51 20 -40 13 -70 -43 -181 -33 -64 -42 -93 -34 -101 7 -7 12 -5 17 9 4 10 22 43 41 72 18 29 33 56 33 61 0 5 7 14 15 21 21 17 19 88 -3 129 -10 19 -34 43 -53 53 -33 18 -89 24 -102 12z"/>
 <path d="M718 674 c-4 -3 4 -23 18 -43 55 -81 78 -228 54 -351 -5 -25 -11 -59 -15 -77 -9 -47 12 -51 32 -6 13 29 17 69 18 173 0 131 -1 137 -31 200 -35 72 -66 115 -76 104z"/>
 <path d="M176 637 c-14 -19 -26 -38 -26 -44 0 -5 -9 -18 -20 -28 -17 -15 -19 -29 -17 -114 2 -89 5 -101 41 -174 29 -60 57 -98 118 -158 44 -43 84 -76 90 -73 5 3 -27 43 -71 89 -112 114 -151 197 -151 318 0 84 1 86 40 138 42 57 46 64 31 74 -5 3 -21 -10 -35 -28z"/>
 <path d="M686 288 c-7 -13 -17 -34 -21 -48 -11 -38 -54 -90 -94 -114 -20 -11 -39 -21 -43 -21 -5 0 -8 -3 -8 -7 0 -5 0 -11 0 -15 0 -4 5 -2 11 4 6 6 18 9 25 6 34 -13 127 88 149 161 15 50 4 70 -19 34z"/>
 <path d="M405 171 c-15 -25 68 -92 88 -72 7 7 3 13 -15 20 -14 5 -34 22 -45 37 -14 19 -22 23 -28 15z"/>
 <path d="M376 41 c-4 -5 -2 -12 3 -15 5 -4 12 -2 15 3 4 5 2 12 -3 15 -5 4 -12 2 -15 -3z"/>
 <path d="M405 20 c-3 -5 1 -10 10 -10 9 0 13 5 10 10 -3 6 -8 10 -10 10 -2 0 -7 -4 -10 -10z"/>
 </g>
<g id="layer25" fill="#37e83e" stroke="none">
 <path d="M515 801 c-7 -12 12 -24 25 -16 11 7 4 25 -10 25 -5 0 -11 -4 -15 -9z"/>
 <path d="M585 781 c-3 -6 3 -15 14 -21 12 -6 22 -6 26 -1 3 6 -3 15 -14 21 -12 6 -22 6 -26 1z"/>
 <path d="M306 771 c-4 -5 -2 -12 3 -15 5 -4 12 -2 15 3 4 5 2 12 -3 15 -5 4 -12 2 -15 -3z"/>
 <path d="M239 733 c-24 -14 -65 -46 -91 -70 -26 -24 -58 -47 -71 -52 -15 -6 -26 -20 -29 -35 -8 -38 3 -38 41 0 40 39 47 39 27 -2 -18 -36 -22 -165 -8 -219 19 -69 58 -138 108 -194 61 -68 143 -133 156 -125 5 4 -7 20 -29 37 -72 58 -135 132 -171 202 -32 63 -36 80 -40 167 -4 96 -4 99 27 147 18 27 43 57 57 66 14 9 23 23 20 30 -5 14 17 39 26 30 3 -3 13 3 22 14 27 30 4 32 -45 4z"/>
 <path d="M636 751 c-4 -5 -2 -12 3 -15 5 -4 12 -2 15 3 4 5 2 12 -3 15 -5 4 -12 2 -15 -3z"/>
 <path d="M306 701 c-10 -15 6 -19 93 -23 58 -3 76 -8 87 -23 25 -33 16 -84 -26 -161 -22 -40 -40 -82 -40 -93 0 -27 19 -37 26 -14 3 10 11 29 19 43 61 109 77 165 60 206 -23 54 -50 69 -135 72 -50 3 -80 0 -84 -7z"/>
 <path d="M706 681 c-4 -5 -2 -12 3 -15 5 -4 12 -2 15 3 4 5 2 12 -3 15 -5 4 -12 2 -15 -3z"/>
 <path d="M726 651 c-4 -5 -2 -12 3 -15 5 -4 12 -2 15 3 4 5 2 12 -3 15 -5 4 -12 2 -15 -3z"/>
 <path d="M747 623 c-3 -5 5 -28 16 -53 11 -25 19 -55 18 -67 -1 -11 2 -24 8 -27 6 -4 8 -12 6 -19 -2 -7 -6 -46 -9 -87 -5 -75 -13 -127 -21 -141 -3 -4 -7 -23 -10 -42 -10 -62 26 -55 38 8 3 17 11 53 16 80 13 65 14 182 1 190 -5 3 -7 12 -3 20 3 8 2 23 -2 33 -5 9 -10 25 -12 35 -4 21 -31 77 -38 77 -2 0 -6 -3 -8 -7z"/>
 <path d="M707 333 c-15 -23 -21 -42 -16 -49 23 -29 -85 -174 -131 -174 -24 0 -36 -18 -17 -26 53 -20 187 123 187 200 0 14 4 36 10 50 15 41 -7 40 -33 -1z"/>
 <path d="M416 141 c-4 -5 -2 -12 3 -15 5 -4 12 -2 15 3 4 5 2 12 -3 15 -5 4 -12 2 -15 -3z"/>
 <path d="M485 101 c-7 -12 12 -24 25 -16 11 7 4 25 -10 25 -5 0 -11 -4 -15 -9z"/>
 <path d="M385 30 c-3 -5 1 -13 10 -16 22 -9 29 1 11 15 -10 8 -16 9 -21 1z"/>
 </g>
<g id="layer26" fill="#4bf551" stroke="none">
 <path d="M496 801 c-4 -5 -2 -12 3 -15 5 -4 12 -2 15 3 4 5 2 12 -3 15 -5 4 -12 2 -15 -3z"/>
 <path d="M535 790 c-6 -9 -4 -11 20 -15 6 0 24 -9 42 -18 19 -10 34 -13 38 -7 3 5 -8 16 -25 25 -16 8 -30 12 -30 8 0 -4 -5 -2 -12 5 -15 15 -25 15 -33 2z"/>
 <path d="M656 732 c-3 -5 5 -19 18 -31 13 -13 26 -18 30 -13 3 5 -5 19 -18 31 -13 13 -26 18 -30 13z"/>
 <path d="M236 701 c-10 -11 -13 -22 -8 -25 5 -3 17 3 26 13 10 11 13 22 8 25 -5 3 -17 -3 -26 -13z"/>
 <path d="M306 691 c-8 -12 4 -18 44 -23 24 -3 25 -5 27 -93 2 -53 9 -104 18 -125 8 -19 16 -47 18 -63 2 -15 7 -27 13 -27 10 0 15 89 6 105 -10 16 -13 55 -5 54 21 -4 25 3 11 19 -9 9 -18 43 -20 75 -3 32 -9 62 -15 68 -16 16 -89 23 -97 10z"/>
 <path d="M708 674 c-3 -3 6 -26 20 -52 32 -57 43 -196 17 -206 -26 -10 -12 -66 17 -66 17 0 31 57 30 122 0 50 -7 82 -27 127 -27 60 -47 86 -57 75z"/>
 <path d="M285 601 c-8 -14 13 -53 26 -46 13 9 11 31 -5 44 -10 8 -16 9 -21 2z"/>
 <path d="M31 531 c-15 -28 -14 -51 4 -57 11 -5 15 -21 15 -60 0 -143 107 -285 285 -378 117 -61 112 -36 -8 35 -76 45 -185 146 -190 176 -2 10 -10 29 -19 43 -18 26 -28 88 -32 180 -2 47 -4 55 -20 52 -10 -2 -15 1 -12 7 4 5 2 12 -3 16 -6 3 -15 -3 -20 -14z"/>
 <path d="M410 325 c-13 -16 -6 -50 9 -41 12 8 21 45 11 51 -4 3 -13 -2 -20 -10z"/>
 <path d="M405 260 c-4 -6 -3 -16 3 -22 6 -6 12 -6 17 2 4 6 3 16 -3 22 -6 6 -12 6 -17 -2z"/>
 <path d="M703 157 c-22 -39 -173 -77 -210 -54 -7 4 -14 3 -18 -3 -6 -10 -5 -11 14 -14 5 0 13 -4 17 -9 10 -10 102 -9 141 2 19 5 35 5 40 0 12 -12 66 29 57 43 -4 6 -2 8 3 5 6 -4 18 2 27 12 10 11 13 22 8 25 -5 3 -15 -1 -22 -9 -11 -14 -15 -14 -31 0 -15 14 -18 14 -26 2z"/>
 <path d="M407 153 c-9 -8 10 -40 27 -46 9 -4 17 -3 20 1 6 10 -39 53 -47 45z"/>
 </g>
<g id="layer27" fill="#3af345" stroke="none">
 <path d="M506 801 c-4 -5 -2 -12 3 -15 5 -4 12 -2 15 3 4 5 2 12 -3 15 -5 4 -12 2 -15 -3z"/>
 <path d="M556 791 c-4 -5 -2 -12 3 -15 5 -4 12 -2 15 3 4 5 2 12 -3 15 -5 4 -12 2 -15 -3z"/>
 <path d="M646 741 c-4 -5 -2 -12 3 -15 5 -4 12 -2 15 3 4 5 2 12 -3 15 -5 4 -12 2 -15 -3z"/>
 <path d="M230 715 c-30 -32 -8 -42 31 -15 16 12 28 25 24 28 -13 14 -35 9 -55 -13z"/>
 <path d="M296 691 c-4 -5 -2 -12 3 -15 5 -4 12 -2 15 3 4 5 2 12 -3 15 -5 4 -12 2 -15 -3z"/>
 <path d="M367 693 c-3 -5 3 -17 14 -26 14 -12 19 -31 20 -69 2 -66 5 -120 9 -133 1 -5 2 -13 2 -17 -1 -3 5 -11 13 -18 11 -9 21 2 54 62 48 86 53 133 18 174 -18 20 -35 28 -74 31 -28 3 -53 1 -56 -4z"/>
 <path d="M696 691 c-4 -5 -2 -12 3 -15 5 -4 12 -2 15 3 4 5 2 12 -3 15 -5 4 -12 2 -15 -3z"/>
 <path d="M114 617 c-16 -13 -40 -30 -52 -36 -13 -7 -21 -15 -18 -18 3 -3 1 -14 -4 -24 -8 -13 -6 -21 8 -31 13 -9 18 -28 20 -68 3 -75 21 -160 36 -166 6 -2 12 -14 13 -25 3 -41 190 -208 215 -193 4 3 -26 37 -66 77 -108 106 -150 202 -147 337 1 53 8 86 22 114 26 49 12 66 -27 33z"/>
 <path d="M737 634 c-3 -4 1 -21 10 -38 21 -39 23 -47 26 -126 3 -71 -9 -106 -29 -89 -19 15 -38 -28 -35 -78 3 -69 -49 -150 -122 -189 -15 -8 -25 -19 -22 -24 10 -17 43 -11 97 16 38 19 49 22 45 10 -10 -26 9 -27 37 -1 21 19 31 47 25 68 0 1 4 14 10 30 23 59 39 233 25 265 -4 9 -6 25 -5 35 1 10 -5 29 -13 43 -9 13 -14 24 -11 24 3 0 -1 14 -10 30 -17 32 -18 33 -28 24z"/>
 <path d="M286 611 c-4 -5 -2 -12 3 -15 5 -4 12 -2 15 3 4 5 2 12 -3 15 -5 4 -12 2 -15 -3z"/>
 <path d="M417 383 c-7 -15 -2 -53 8 -53 12 0 16 48 4 55 -4 3 -9 2 -12 -2z"/>
 <path d="M426 131 c-4 -5 -2 -12 3 -15 5 -4 12 -2 15 3 4 5 2 12 -3 15 -5 4 -12 2 -15 -3z"/>
 <path d="M456 111 c-4 -5 -2 -12 3 -15 5 -4 12 -2 15 3 4 5 2 12 -3 15 -5 4 -12 2 -15 -3z"/>
 <path d="M345 51 c-3 -6 3 -15 14 -21 12 -6 22 -6 26 -1 3 6 -3 15 -14 21 -12 6 -22 6 -26 1z"/>
 </g>

</svg>