<!DOCTYPE svg PUBLIC "-//W3C//DTD SVG 20010904//EN" "http://www.w3.org/TR/2001/REC-SVG-20010904/DTD/svg10.dtd">
<svg version="1.0" xmlns="http://www.w3.org/2000/svg" width="87px" height="84px" viewBox="0 0 870 840" preserveAspectRatio="xMidYMid meet">
<g id="layer1" fill="#7ea783" stroke="none">
 <path d="M570 805 c0 -8 5 -15 10 -15 6 0 10 7 10 15 0 8 -4 15 -10 15 -5 0 -10 -7 -10 -15z"/>
 <path d="M270 795 c0 -8 5 -15 10 -15 6 0 10 7 10 15 0 8 -4 15 -10 15 -5 0 -10 -7 -10 -15z"/>
 <path d="M824 577 c3 -10 6 -25 6 -33 0 -8 5 -14 10 -14 15 0 12 24 -6 46 -14 17 -15 17 -10 1z"/>
 <path d="M844 459 c-3 -6 -1 -16 5 -22 8 -8 11 -5 11 11 0 24 -5 28 -16 11z"/>
 <path d="M844 339 c-3 -6 -1 -16 5 -22 8 -8 11 -5 11 11 0 24 -5 28 -16 11z"/>
 <path d="M440 150 c0 -5 5 -10 10 -10 6 0 10 5 10 10 0 6 -4 10 -10 10 -5 0 -10 -4 -10 -10z"/>
 <path d="M400 60 c0 -5 5 -10 10 -10 6 0 10 5 10 10 0 6 -4 10 -10 10 -5 0 -10 -4 -10 -10z"/>
 </g>
<g id="layer2" fill="#40cf41" stroke="none">
 <path d="M67 633 c-12 -11 -8 -23 8 -23 8 0 15 7 15 15 0 16 -12 20 -23 8z"/>
 <path d="M542 570 c-16 -26 -15 -30 3 -30 8 0 15 4 15 9 0 5 3 16 6 25 9 23 -9 20 -24 -4z"/>
 <path d="M807 223 c-4 -3 -7 -11 -7 -17 0 -6 5 -5 12 2 6 6 9 14 7 17 -3 3 -9 2 -12 -2z"/>
 </g>
<g id="layer3" fill="#5bd260" stroke="none">
 <path d="M172 590 c-16 -26 -15 -30 3 -30 8 0 15 4 15 9 0 5 3 16 6 25 9 23 -9 20 -24 -4z"/>
 <path d="M516 514 c-9 -24 -7 -28 9 -14 17 14 20 30 6 30 -5 0 -12 -7 -15 -16z"/>
 <path d="M480 450 c0 -5 5 -10 10 -10 6 0 10 5 10 10 0 6 -4 10 -10 10 -5 0 -10 -4 -10 -10z"/>
 <path d="M457 413 c-4 -3 -7 -11 -7 -17 0 -6 5 -5 12 2 6 6 9 14 7 17 -3 3 -9 2 -12 -2z"/>
 <path d="M420 340 c0 -5 7 -10 15 -10 8 0 15 5 15 10 0 6 -7 10 -15 10 -8 0 -15 -4 -15 -10z"/>
 <path d="M670 270 c0 -5 5 -10 10 -10 6 0 10 5 10 10 0 6 -4 10 -10 10 -5 0 -10 -4 -10 -10z"/>
 <path d="M400 225 c0 -8 7 -15 15 -15 8 0 15 7 15 15 0 8 -7 15 -15 15 -8 0 -15 -7 -15 -15z"/>
 <path d="M794 196 c-9 -15 -14 -29 -11 -32 3 -3 13 6 23 20 9 15 14 29 11 32 -3 3 -13 -6 -23 -20z"/>
 </g>
<g id="layer4" fill="#4e7752" stroke="none">
 <path d="M227 783 c-12 -11 -8 -23 8 -23 8 0 15 7 15 15 0 16 -12 20 -23 8z"/>
 <path d="M640 776 c0 -9 7 -16 16 -16 17 0 14 22 -4 28 -7 2 -12 -3 -12 -12z"/>
 <path d="M702 732 c6 -17 118 -135 118 -126 0 14 -28 54 -69 97 -32 34 -57 49 -49 29z"/>
 <path d="M220 263 c0 -5 9 -19 20 -33 24 -32 38 -19 13 14 -18 25 -33 33 -33 19z"/>
 </g>
<g id="layer5" fill="#406b45" stroke="none">
 <path d="M200 286 c0 -9 7 -16 16 -16 9 0 14 5 12 12 -6 18 -28 21 -28 4z"/>
 <path d="M262 199 c2 -7 10 -15 17 -17 8 -3 12 1 9 9 -2 7 -10 15 -17 17 -8 3 -12 -1 -9 -9z"/>
 <path d="M320 140 c0 -5 5 -10 10 -10 6 0 10 5 10 10 0 6 -4 10 -10 10 -5 0 -10 -4 -10 -10z"/>
 <path d="M470 135 c0 -10 10 -15 30 -15 20 0 30 5 30 15 0 10 -10 15 -30 15 -20 0 -30 -5 -30 -15z"/>
 <path d="M370 90 c0 -5 5 -10 10 -10 6 0 10 5 10 10 0 6 -4 10 -10 10 -5 0 -10 -4 -10 -10z"/>
 </g>
<g id="layer6" fill="#a0dda4" stroke="none">
 <path d="M360 810 c0 -5 6 -10 14 -10 8 0 17 -6 19 -12 4 -10 7 -10 14 -1 5 7 37 13 76 14 103 3 79 19 -28 19 -57 0 -95 -4 -95 -10z"/>
 <path d="M380 755 c0 -11 12 -15 50 -15 38 0 50 4 50 15 0 11 -12 15 -50 15 -38 0 -50 -4 -50 -15z"/>
 <path d="M80 650 c0 -5 5 -10 10 -10 6 0 10 5 10 10 0 6 -4 10 -10 10 -5 0 -10 -4 -10 -10z"/>
 <path d="M207 643 c-4 -3 -7 -11 -7 -17 0 -6 5 -5 12 2 6 6 9 14 7 17 -3 3 -9 2 -12 -2z"/>
 <path d="M560 605 c0 -8 7 -15 15 -15 8 0 15 7 15 15 0 8 -7 15 -15 15 -8 0 -15 -7 -15 -15z"/>
 <path d="M500 480 c0 -5 5 -10 10 -10 6 0 10 5 10 10 0 6 -4 10 -10 10 -5 0 -10 -4 -10 -10z"/>
 <path d="M467 423 c-4 -3 -7 -11 -7 -17 0 -6 5 -5 12 2 6 6 9 14 7 17 -3 3 -9 2 -12 -2z"/>
 <path d="M430 370 c0 -5 7 -10 15 -10 8 0 15 5 15 10 0 6 -7 10 -15 10 -8 0 -15 -4 -15 -10z"/>
 <path d="M830 275 c0 -8 5 -15 10 -15 6 0 10 7 10 15 0 8 -4 15 -10 15 -5 0 -10 -7 -10 -15z"/>
 <path d="M650 240 c0 -5 5 -10 10 -10 6 0 10 5 10 10 0 6 -4 10 -10 10 -5 0 -10 -4 -10 -10z"/>
 </g>
<g id="layer7" fill="#3ad343" stroke="none">
 <path d="M430 805 c0 -8 7 -15 15 -15 8 0 15 7 15 15 0 8 -7 15 -15 15 -8 0 -15 -7 -15 -15z"/>
 <path d="M220 720 c0 -5 5 -10 10 -10 6 0 10 5 10 10 0 6 -4 10 -10 10 -5 0 -10 -4 -10 -10z"/>
 <path d="M516 605 c-9 -23 -8 -25 9 -25 17 0 19 9 6 28 -7 11 -10 10 -15 -3z"/>
 <path d="M136 584 c-4 -9 -4 -19 -1 -22 6 -6 35 18 35 29 0 16 -28 10 -34 -7z"/>
 <path d="M500 550 c0 -5 7 -10 15 -10 8 0 15 5 15 10 0 6 -7 10 -15 10 -8 0 -15 -4 -15 -10z"/>
 <path d="M790 470 c0 -5 7 -10 15 -10 8 0 15 5 15 10 0 6 -7 10 -15 10 -8 0 -15 -4 -15 -10z"/>
 <path d="M443 435 c-3 -9 -3 -18 0 -21 9 -9 27 6 27 22 0 19 -19 18 -27 -1z"/>
 <path d="M130 331 c0 -5 5 -13 10 -16 6 -3 10 -2 10 4 0 5 -4 13 -10 16 -5 3 -10 2 -10 -4z"/>
 <path d="M270 120 c0 -5 5 -10 10 -10 6 0 10 5 10 10 0 6 -4 10 -10 10 -5 0 -10 -4 -10 -10z"/>
 </g>
<g id="layer8" fill="#1ca329" stroke="none">
 <path d="M590 780 c0 -5 7 -10 15 -10 8 0 15 5 15 10 0 6 -7 10 -15 10 -8 0 -15 -4 -15 -10z"/>
 <path d="M163 718 c-13 -6 -23 -17 -23 -25 0 -8 3 -13 8 -11 48 24 62 32 62 40 0 11 -20 9 -47 -4z"/>
 <path d="M322 718 c6 -18 28 -21 28 -4 0 9 -7 16 -16 16 -9 0 -14 -5 -12 -12z"/>
 <path d="M380 715 c0 -10 11 -15 35 -15 24 0 35 5 35 15 0 10 -11 15 -35 15 -24 0 -35 -5 -35 -15z"/>
 <path d="M680 720 c0 -5 5 -10 10 -10 6 0 10 5 10 10 0 6 -4 10 -10 10 -5 0 -10 -4 -10 -10z"/>
 <path d="M100 660 c0 -5 5 -10 10 -10 6 0 10 5 10 10 0 6 -4 10 -10 10 -5 0 -10 -4 -10 -10z"/>
 <path d="M520 661 c0 -5 5 -13 10 -16 6 -3 10 -2 10 4 0 5 -4 13 -10 16 -5 3 -10 2 -10 -4z"/>
 <path d="M540 601 c0 -12 6 -21 15 -21 8 0 15 4 15 9 0 5 -7 14 -15 21 -13 10 -15 9 -15 -9z"/>
 <path d="M770 605 c0 -13 32 -66 36 -62 6 6 -23 67 -31 67 -3 0 -5 -2 -5 -5z"/>
 <path d="M146 554 c-9 -24 -7 -28 9 -14 17 14 20 30 6 30 -5 0 -12 -7 -15 -16z"/>
 <path d="M220 200 c0 -5 5 -10 10 -10 6 0 10 5 10 10 0 6 -4 10 -10 10 -5 0 -10 -4 -10 -10z"/>
 <path d="M622 189 c-7 -12 -11 -24 -8 -27 6 -6 35 27 36 41 0 14 -15 7 -28 -14z"/>
 <path d="M450 120 c0 -5 7 -10 15 -10 8 0 15 5 15 10 0 6 -7 10 -15 10 -8 0 -15 -4 -15 -10z"/>
 </g>
<g id="layer9" fill="#bfecc2" stroke="none">
 <path d="M210 770 c0 -5 5 -10 10 -10 6 0 10 5 10 10 0 6 -4 10 -10 10 -5 0 -10 -4 -10 -10z"/>
 <path d="M540 549 c0 -18 2 -19 15 -9 8 7 15 16 15 21 0 5 -7 9 -15 9 -9 0 -15 -9 -15 -21z"/>
 <path d="M687 303 c-4 -3 -7 -11 -7 -17 0 -6 5 -5 12 2 6 6 9 14 7 17 -3 3 -9 2 -12 -2z"/>
 <path d="M820 240 c0 -5 5 -10 10 -10 6 0 10 5 10 10 0 6 -4 10 -10 10 -5 0 -10 -4 -10 -10z"/>
 <path d="M630 220 c0 -5 5 -10 10 -10 6 0 10 5 10 10 0 6 -4 10 -10 10 -5 0 -10 -4 -10 -10z"/>
 <path d="M590 180 c0 -5 5 -10 10 -10 6 0 10 5 10 10 0 6 -4 10 -10 10 -5 0 -10 -4 -10 -10z"/>
 <path d="M520 145 c0 -8 5 -15 10 -15 6 0 10 7 10 15 0 8 -4 15 -10 15 -5 0 -10 -7 -10 -15z"/>
 <path d="M130 132 c0 -14 39 -46 47 -39 3 4 -2 16 -12 27 -19 21 -35 26 -35 12z"/>
 <path d="M420 90 c0 -5 5 -10 10 -10 6 0 10 5 10 10 0 6 -4 10 -10 10 -5 0 -10 -4 -10 -10z"/>
 <path d="M420 41 c0 -5 5 -13 10 -16 6 -3 10 -2 10 4 0 5 -4 13 -10 16 -5 3 -10 2 -10 -4z"/>
 <path d="M540 35 c0 -10 10 -15 30 -15 20 0 30 5 30 15 0 10 -10 15 -30 15 -20 0 -30 -5 -30 -15z"/>
 <path d="M260 31 c0 -10 24 -21 43 -21 7 0 3 7 -7 15 -22 17 -36 19 -36 6z"/>
 </g>
<g id="layer10" fill="#619a65" stroke="none">
 <path d="M320 805 c0 -8 9 -15 20 -15 11 0 20 7 20 15 0 8 -9 15 -20 15 -11 0 -20 -7 -20 -15z"/>
 <path d="M600 796 c0 -9 7 -16 16 -16 17 0 14 22 -4 28 -7 2 -12 -3 -12 -12z"/>
 <path d="M480 746 c0 -9 7 -16 16 -16 17 0 14 22 -4 28 -7 2 -12 -3 -12 -12z"/>
 <path d="M680 750 c0 -5 5 -10 10 -10 6 0 10 5 10 10 0 6 -4 10 -10 10 -5 0 -10 -4 -10 -10z"/>
 <path d="M130 705 c-18 -19 -30 -38 -27 -42 8 -7 77 55 77 69 0 16 -17 7 -50 -27z"/>
 <path d="M150 475 c0 -60 3 -75 15 -75 12 0 15 15 15 75 0 60 -3 75 -15 75 -12 0 -15 -15 -15 -75z"/>
 <path d="M847 503 c-9 -17 -7 -162 3 -168 6 -4 10 26 10 84 0 85 -3 102 -13 84z"/>
 <path d="M170 368 c0 -24 24 -68 38 -68 15 0 15 1 -4 38 -17 36 -34 50 -34 30z"/>
 <path d="M620 200 c0 -5 5 -10 10 -10 6 0 10 5 10 10 0 6 -4 10 -10 10 -5 0 -10 -4 -10 -10z"/>
 <path d="M570 160 c0 -5 5 -10 10 -10 6 0 10 5 10 10 0 6 -4 10 -10 10 -5 0 -10 -4 -10 -10z"/>
 </g>
<g id="layer11" fill="#266f28" stroke="none">
 <path d="M300 795 c0 -8 5 -15 10 -15 6 0 10 7 10 15 0 8 -4 15 -10 15 -5 0 -10 -7 -10 -15z"/>
 <path d="M610 780 c0 -5 7 -10 15 -10 8 0 15 5 15 10 0 6 -7 10 -15 10 -8 0 -15 -4 -15 -10z"/>
 <path d="M190 750 c0 -13 20 -13 40 0 12 8 9 10 -12 10 -16 0 -28 -4 -28 -10z"/>
 <path d="M370 725 c0 -10 10 -15 30 -15 20 0 30 5 30 15 0 10 -10 15 -30 15 -20 0 -30 -5 -30 -15z"/>
 <path d="M510 705 c0 -18 5 -25 20 -25 22 0 26 20 8 38 -19 19 -28 14 -28 -13z"/>
 <path d="M780 601 c0 -5 9 -11 20 -14 14 -4 18 -10 13 -23 -4 -12 -3 -15 5 -10 18 11 14 34 -7 46 -24 12 -31 13 -31 1z"/>
 <path d="M156 383 c-11 -11 -6 -23 9 -23 8 0 15 4 15 9 0 13 -16 22 -24 14z"/>
 <path d="M160 334 c0 -5 7 -19 15 -30 8 -10 15 -14 15 -8 0 5 -7 19 -15 30 -8 10 -15 14 -15 8z"/>
 <path d="M250 182 c0 -14 35 -42 53 -42 17 0 24 25 10 33 -19 10 -63 17 -63 9z"/>
 <path d="M560 150 c0 -5 7 -10 15 -10 8 0 15 5 15 10 0 6 -7 10 -15 10 -8 0 -15 -4 -15 -10z"/>
 <path d="M450 135 c0 -8 5 -15 10 -15 6 0 10 7 10 15 0 8 -4 15 -10 15 -5 0 -10 -7 -10 -15z"/>
 <path d="M310 123 c0 -15 23 -33 43 -33 30 0 16 34 -16 38 -15 2 -27 -1 -27 -5z"/>
 <path d="M380 60 c19 -13 30 -13 30 0 0 6 -10 10 -22 10 -19 0 -20 -2 -8 -10z"/>
 </g>
<g id="layer12" fill="#26932a" stroke="none">
 <path d="M360 805 c0 -8 5 -15 10 -15 6 0 10 7 10 15 0 8 -4 15 -10 15 -5 0 -10 -7 -10 -15z"/>
 <path d="M570 795 c0 -8 7 -15 15 -15 8 0 15 7 15 15 0 8 -7 15 -15 15 -8 0 -15 -7 -15 -15z"/>
 <path d="M235 759 c-27 -16 -54 -30 -60 -32 -5 -3 -7 -8 -2 -12 8 -10 147 54 147 67 0 15 -35 6 -85 -23z"/>
 <path d="M340 741 c0 -21 13 -41 26 -41 18 0 18 18 0 36 -17 16 -26 18 -26 5z"/>
 <path d="M450 715 c0 -8 9 -15 20 -15 24 0 27 15 4 24 -22 9 -24 8 -24 -9z"/>
 <path d="M702 699 c2 -7 10 -15 17 -17 8 -3 12 1 9 9 -2 7 -10 15 -17 17 -8 3 -12 -1 -9 -9z"/>
 <path d="M120 680 c0 -5 5 -10 10 -10 6 0 10 5 10 10 0 6 -4 10 -10 10 -5 0 -10 -4 -10 -10z"/>
 <path d="M530 643 c1 -21 27 -59 35 -51 7 7 -11 54 -24 63 -6 3 -11 -2 -11 -12z"/>
 <path d="M760 620 c0 -5 5 -10 10 -10 6 0 10 5 10 10 0 6 -4 10 -10 10 -5 0 -10 -4 -10 -10z"/>
 <path d="M800 530 c0 -5 7 -10 15 -10 8 0 15 5 15 10 0 6 -7 10 -15 10 -8 0 -15 -4 -15 -10z"/>
 <path d="M130 521 c0 -5 3 -17 6 -26 5 -13 8 -14 15 -3 13 20 11 38 -6 38 -8 0 -15 -4 -15 -9z"/>
 <path d="M810 485 c0 -8 7 -15 15 -15 8 0 15 7 15 15 0 8 -7 15 -15 15 -8 0 -15 -7 -15 -15z"/>
 <path d="M130 380 c0 -5 7 -10 15 -10 8 0 15 5 15 10 0 6 -7 10 -15 10 -8 0 -15 -4 -15 -10z"/>
 <path d="M820 365 c0 -8 7 -15 15 -15 8 0 15 7 15 15 0 8 -7 15 -15 15 -8 0 -15 -7 -15 -15z"/>
 <path d="M142 343 c29 -63 64 -123 70 -123 12 0 10 4 -17 51 -14 24 -25 52 -25 62 0 9 -7 17 -16 17 -9 0 -14 -3 -12 -7z"/>
 <path d="M240 182 c0 -14 69 -76 77 -69 3 4 -9 23 -27 42 -33 34 -50 43 -50 27z"/>
 <path d="M422 160 c1 -13 9 -25 16 -28 17 -5 15 23 -4 39 -14 11 -15 10 -12 -11z"/>
 <path d="M587 158 c-7 -25 -3 -33 12 -23 13 8 15 45 2 45 -5 0 -11 -10 -14 -22z"/>
 <path d="M530 115 c0 -8 5 -15 10 -15 6 0 10 7 10 15 0 8 -4 15 -10 15 -5 0 -10 -7 -10 -15z"/>
 <path d="M330 91 c0 -13 29 -35 37 -28 7 8 -15 37 -28 37 -5 0 -9 -4 -9 -9z"/>
 <path d="M400 40 c0 -5 5 -10 10 -10 6 0 10 5 10 10 0 6 -4 10 -10 10 -5 0 -10 -4 -10 -10z"/>
 </g>
<g id="layer13" fill="#125616" stroke="none">
 <path d="M421 741 c-12 -8 -8 -11 15 -16 48 -10 78 -29 99 -62 24 -38 50 -45 40 -10 -4 12 -24 39 -45 60 -40 37 -78 47 -109 28z"/>
 <path d="M690 735 c0 -3 23 -33 50 -67 46 -57 90 -147 90 -183 0 -8 5 -15 10 -15 19 0 10 71 -16 123 -33 65 -134 173 -134 142z"/>
 <path d="M155 358 c19 -62 73 -142 145 -213 44 -43 82 -76 86 -72 4 3 -28 43 -69 87 -52 55 -87 103 -109 150 -18 39 -39 70 -46 70 -9 0 -11 -7 -7 -22z"/>
 <path d="M490 125 c0 -16 17 -19 44 -9 26 10 18 24 -14 24 -20 0 -30 -5 -30 -15z"/>
 </g>
<g id="layer14" fill="#1d8e25" stroke="none">
 <path d="M313 803 c-20 -8 -15 -23 7 -23 11 0 20 7 20 15 0 15 -6 17 -27 8z"/>
 <path d="M600 782 c0 -12 60 -45 68 -37 4 3 -4 15 -18 25 -26 20 -50 26 -50 12z"/>
 <path d="M207 751 c-42 -20 -64 -38 -55 -46 7 -7 118 46 118 57 0 12 -21 8 -63 -11z"/>
 <path d="M340 725 c0 -8 7 -15 15 -15 8 0 15 7 15 15 0 8 -7 15 -15 15 -8 0 -15 -7 -15 -15z"/>
 <path d="M470 711 c0 -10 30 -24 37 -17 3 3 2 9 -2 15 -8 13 -35 15 -35 2z"/>
 <path d="M520 671 c0 -6 5 -13 10 -16 6 -3 10 -15 10 -25 0 -20 17 -36 27 -26 7 7 -28 76 -39 76 -5 0 -8 -4 -8 -9z"/>
 <path d="M730 673 c1 -14 30 -47 36 -41 6 7 -17 48 -28 48 -5 0 -8 -3 -8 -7z"/>
 <path d="M785 578 c9 -29 23 -44 32 -35 8 9 -17 57 -29 57 -5 0 -6 -10 -3 -22z"/>
 <path d="M140 535 c0 -8 7 -15 15 -15 8 0 15 7 15 15 0 8 -7 15 -15 15 -8 0 -15 -7 -15 -15z"/>
 <path d="M810 510 c0 -5 7 -10 15 -10 8 0 15 5 15 10 0 6 -7 10 -15 10 -8 0 -15 -4 -15 -10z"/>
 <path d="M137 484 c-11 -45 -8 -94 7 -94 11 0 15 11 14 44 -1 50 -13 80 -21 50z"/>
 <path d="M820 425 c0 -33 4 -45 15 -45 11 0 15 12 15 45 0 33 -4 45 -15 45 -11 0 -15 -12 -15 -45z"/>
 <path d="M820 315 c0 -24 5 -35 15 -35 10 0 15 11 15 35 0 24 -5 35 -15 35 -10 0 -15 -11 -15 -35z"/>
 <path d="M161 327 c-1 -10 43 -96 62 -122 31 -41 26 -6 -5 42 -18 28 -38 59 -45 69 -6 10 -12 15 -12 11z"/>
 <path d="M583 160 c-32 -28 -42 -50 -25 -50 10 0 72 63 72 73 0 14 -15 6 -47 -23z"/>
 <path d="M490 115 c0 -17 9 -19 28 -6 11 7 10 10 -3 15 -23 9 -25 8 -25 -9z"/>
 <path d="M370 56 c0 -15 37 -32 48 -22 6 6 -27 35 -40 36 -5 0 -8 -6 -8 -14z"/>
 </g>
<g id="layer15" fill="#6ef874" stroke="none">
 <path d="M650 721 c0 -13 29 -35 37 -28 7 8 -15 37 -28 37 -5 0 -9 -4 -9 -9z"/>
 <path d="M307 683 c-15 -14 -6 -23 23 -23 25 0 30 -4 30 -24 0 -14 -4 -28 -10 -31 -17 -10 -12 -75 5 -75 11 0 15 11 15 39 0 22 5 43 10 46 16 10 12 40 -8 58 -19 17 -53 22 -65 10z"/>
 <path d="M700 661 c0 -5 7 -14 15 -21 16 -14 18 -10 9 14 -6 17 -24 22 -24 7z"/>
 <path d="M726 588 c4 -12 7 -35 6 -50 -2 -29 21 -40 31 -15 10 26 -8 82 -27 85 -15 3 -17 0 -10 -20z"/>
 <path d="M300 555 c0 -8 5 -15 10 -15 6 0 10 7 10 15 0 8 -4 15 -10 15 -5 0 -10 -7 -10 -15z"/>
 <path d="M370 465 c0 -16 26 -55 37 -55 17 0 17 11 -3 38 -13 19 -34 30 -34 17z"/>
 <path d="M25 349 c-4 -6 2 -20 12 -32 11 -12 27 -41 37 -64 10 -23 32 -54 49 -70 35 -33 35 -33 -23 85 -43 86 -60 106 -75 81z"/>
 <path d="M160 143 c1 -14 95 -81 146 -103 27 -13 57 -27 66 -31 24 -12 41 -11 32 2 -3 6 -36 24 -72 40 -37 17 -85 46 -108 65 -40 32 -64 43 -64 27z"/>
 <path d="M420 105 c0 -8 6 -15 13 -15 6 0 22 -3 35 -6 30 -9 28 10 -3 24 -34 16 -45 15 -45 -3z"/>
 <path d="M510 75 c0 -8 5 -15 10 -15 6 0 10 7 10 15 0 8 -4 15 -10 15 -5 0 -10 -7 -10 -15z"/>
 <path d="M560 65 c0 -12 13 -15 55 -15 42 0 55 3 55 15 0 12 -13 15 -55 15 -42 0 -55 -3 -55 -15z"/>
 </g>
<g id="layer16" fill="#d1f6d3" stroke="none">
 <path d="M420 795 c0 -8 9 -15 20 -15 11 0 20 7 20 15 0 8 -9 15 -20 15 -11 0 -20 -7 -20 -15z"/>
 <path d="M560 762 c0 -12 51 -34 59 -27 7 8 -28 35 -46 35 -7 0 -13 -4 -13 -8z"/>
 <path d="M295 749 c-4 -6 -5 -13 -2 -16 7 -7 27 6 27 18 0 12 -17 12 -25 -2z"/>
 <path d="M90 670 c0 -5 5 -10 10 -10 6 0 10 5 10 10 0 6 -4 10 -10 10 -5 0 -10 -4 -10 -10z"/>
 <path d="M670 674 c0 -5 7 -19 15 -30 8 -10 15 -14 15 -8 0 5 -7 19 -15 30 -8 10 -15 14 -15 8z"/>
 <path d="M202 624 c-30 -62 -21 -68 12 -8 29 51 30 54 18 54 -4 0 -18 -21 -30 -46z"/>
 <path d="M270 626 c0 -41 2 -45 29 -51 28 -6 29 -8 19 -36 -9 -25 -5 -37 27 -95 40 -72 60 -83 24 -12 -13 23 -22 49 -21 56 2 6 -3 12 -9 12 -8 0 -6 7 4 18 22 24 23 92 2 92 -8 0 -15 -4 -15 -10 0 -5 -7 -10 -15 -10 -11 0 -15 11 -15 40 0 29 -4 40 -15 40 -11 0 -15 -12 -15 -44z"/>
 <path d="M320 656 c0 -9 7 -16 16 -16 17 0 14 22 -4 28 -7 2 -12 -3 -12 -12z"/>
 <path d="M710 540 c0 -5 7 -10 15 -10 8 0 15 5 15 10 0 6 -7 10 -15 10 -8 0 -15 -4 -15 -10z"/>
 <path d="M844 529 c-3 -6 -1 -16 5 -22 8 -8 11 -5 11 11 0 24 -5 28 -16 11z"/>
 <path d="M160 390 c0 -5 7 -10 15 -10 8 0 15 5 15 10 0 6 -7 10 -15 10 -8 0 -15 -4 -15 -10z"/>
 <path d="M380 335 c0 -8 7 -15 15 -15 8 0 15 7 15 15 0 8 -7 15 -15 15 -8 0 -15 -7 -15 -15z"/>
 <path d="M30 281 c0 -5 5 -13 10 -16 6 -3 10 -2 10 4 0 5 -4 13 -10 16 -5 3 -10 2 -10 -4z"/>
 <path d="M60 228 c0 -14 23 -58 32 -58 4 0 8 3 8 8 -1 9 -39 59 -40 50z"/>
 <path d="M797 183 c-4 -3 -7 -11 -7 -17 0 -6 5 -5 12 2 6 6 9 14 7 17 -3 3 -9 2 -12 -2z"/>
 <path d="M550 155 c0 -8 5 -15 10 -15 6 0 10 7 10 15 0 8 -4 15 -10 15 -5 0 -10 -7 -10 -15z"/>
 <path d="M180 82 c0 -10 56 -52 70 -52 19 0 10 15 -23 38 -35 23 -47 27 -47 14z"/>
 <path d="M390 80 c0 -5 5 -10 10 -10 6 0 10 5 10 10 0 6 -4 10 -10 10 -5 0 -10 -4 -10 -10z"/>
 <path d="M470 50 c0 -5 7 -10 15 -10 8 0 15 5 15 10 0 6 -7 10 -15 10 -8 0 -15 -4 -15 -10z"/>
 <path d="M520 35 c0 -8 5 -15 10 -15 6 0 10 7 10 15 0 8 -4 15 -10 15 -5 0 -10 -7 -10 -15z"/>
 <path d="M600 35 c0 -8 7 -15 15 -15 8 0 15 7 15 15 0 8 -7 15 -15 15 -8 0 -15 -7 -15 -15z"/>
 <path d="M426 25 c-3 -9 0 -15 9 -15 9 0 12 6 9 15 -4 8 -7 15 -9 15 -2 0 -5 -7 -9 -15z"/>
 <path d="M280 10 c8 -5 24 -9 35 -9 l20 0 -20 9 c-11 5 -27 9 -35 9 -13 1 -13 0 0 -9z"/>
 </g>
<g id="layer17" fill="#adfab0" stroke="none">
 <path d="M570 760 c0 -5 7 -10 15 -10 8 0 15 5 15 10 0 6 -7 10 -15 10 -8 0 -15 -4 -15 -10z"/>
 <path d="M620 732 c0 -5 12 -19 26 -33 14 -13 33 -37 41 -52 8 -16 17 -27 19 -24 7 7 -24 67 -49 95 -21 22 -37 29 -37 14z"/>
 <path d="M250 705 c-7 -9 -10 -18 -7 -22 8 -7 37 15 37 28 0 14 -16 11 -30 -6z"/>
 <path d="M296 638 c-9 -33 -8 -38 8 -38 10 0 14 10 14 30 -1 35 -13 40 -22 8z"/>
 <path d="M290 565 c0 -23 27 -55 47 -55 l23 0 -20 20 c-11 11 -20 25 -20 30 0 6 -7 10 -15 10 -8 0 -15 -2 -15 -5z"/>
 <path d="M345 479 c-4 -6 -5 -13 -2 -16 7 -7 27 6 27 18 0 12 -17 12 -25 -2z"/>
 <path d="M360 434 c0 -5 7 -19 15 -30 8 -10 15 -14 15 -8 0 5 -7 19 -15 30 -8 10 -15 14 -15 8z"/>
 <path d="M20 355 c0 -14 5 -25 10 -25 6 0 10 11 10 25 0 14 -4 25 -10 25 -5 0 -10 -11 -10 -25z"/>
 <path d="M380 360 c0 -5 7 -10 15 -10 8 0 15 5 15 10 0 6 -7 10 -15 10 -8 0 -15 -4 -15 -10z"/>
 <path d="M390 295 c0 -8 7 -15 15 -15 8 0 15 7 15 15 0 8 -7 15 -15 15 -8 0 -15 -7 -15 -15z"/>
 <path d="M50 255 c0 -11 40 -80 57 -101 33 -38 138 -120 176 -137 21 -9 50 -17 65 -17 24 0 21 3 -22 26 -112 59 -203 132 -241 192 -26 40 -35 49 -35 37z"/>
 <path d="M760 140 c0 -5 5 -10 10 -10 6 0 10 5 10 10 0 6 -4 10 -10 10 -5 0 -10 -4 -10 -10z"/>
 <path d="M450 76 c0 -13 56 -46 79 -46 24 0 9 27 -24 43 -43 21 -55 21 -55 3z"/>
 <path d="M650 60 c-8 -5 -12 -12 -8 -15 9 -9 48 4 48 16 0 12 -21 11 -40 -1z"/>
 </g>
<g id="layer18" fill="#7df984" stroke="none">
 <path d="M580 760 c0 -5 7 -10 15 -10 8 0 15 5 15 10 0 6 -7 10 -15 10 -8 0 -15 -4 -15 -10z"/>
 <path d="M630 730 c0 -5 5 -10 10 -10 6 0 10 5 10 10 0 6 -4 10 -10 10 -5 0 -10 -4 -10 -10z"/>
 <path d="M300 700 c0 -5 5 -10 10 -10 6 0 10 5 10 10 0 6 -4 10 -10 10 -5 0 -10 -4 -10 -10z"/>
 <path d="M680 685 c0 -3 4 -13 9 -23 15 -29 31 -87 31 -110 0 -14 6 -22 16 -22 14 0 16 8 10 47 -6 44 -42 113 -58 113 -5 0 -8 -2 -8 -5z"/>
 <path d="M298 673 c-10 -2 -18 -11 -18 -19 0 -12 8 -13 36 -8 36 7 37 6 30 -20 -5 -19 -3 -26 9 -26 20 0 31 46 15 65 -12 15 -37 17 -72 8z"/>
 <path d="M297 593 c-4 -3 -7 -11 -7 -17 0 -6 5 -5 12 2 6 6 9 14 7 17 -3 3 -9 2 -12 -2z"/>
 <path d="M310 531 c0 -5 5 -13 10 -16 6 -3 10 -2 10 4 0 5 -4 13 -10 16 -5 3 -10 2 -10 -4z"/>
 <path d="M370 449 c0 -6 5 -19 11 -30 5 -11 11 -38 11 -60 0 -24 5 -39 13 -39 18 0 17 77 -1 112 -14 28 -34 38 -34 17z"/>
 <path d="M720 410 c0 -5 7 -10 15 -10 8 0 15 5 15 10 0 6 -7 10 -15 10 -8 0 -15 -4 -15 -10z"/>
 <path d="M25 329 c-4 -6 2 -21 14 -33 12 -12 21 -25 21 -29 0 -12 62 -97 71 -97 15 0 10 16 -11 35 -10 9 -25 34 -31 54 -22 66 -49 96 -64 70z"/>
 <path d="M140 153 c1 -24 163 -133 196 -133 13 0 26 -4 29 -10 3 -5 13 -10 21 -10 28 0 2 20 -64 51 -37 16 -88 48 -114 69 -44 38 -68 49 -68 33z"/>
 <path d="M430 95 c0 -9 9 -15 25 -15 28 0 34 15 9 24 -25 10 -34 7 -34 -9z"/>
 <path d="M500 71 c0 -10 24 -21 46 -21 8 0 14 7 14 15 0 10 -10 15 -30 15 -16 0 -30 -4 -30 -9z"/>
 <path d="M666 73 c-3 -4 -24 -6 -46 -5 -30 2 -40 -1 -40 -13 0 -9 9 -15 23 -15 34 0 97 20 97 30 0 11 -23 13 -34 3z"/>
 </g>
<g id="layer19" fill="#176c1b" stroke="none">
 <path d="M228 772 c-27 -15 -48 -33 -48 -40 0 -8 3 -12 8 -10 74 32 112 54 112 65 0 19 -18 15 -72 -15z"/>
 <path d="M640 768 c1 -16 49 -52 57 -44 7 7 -36 56 -49 56 -4 0 -8 -6 -8 -12z"/>
 <path d="M378 753 c-10 -2 -18 -11 -18 -19 0 -10 11 -13 39 -12 22 1 53 -5 70 -12 36 -14 44 -11 35 14 -5 12 -14 16 -30 13 -16 -3 -24 0 -24 9 0 14 -35 17 -72 7z"/>
 <path d="M710 701 c0 -13 29 -35 37 -28 7 8 -15 37 -28 37 -5 0 -9 -4 -9 -9z"/>
 <path d="M530 670 c0 -20 24 -60 37 -60 17 0 16 4 -2 40 -15 29 -35 40 -35 20z"/>
 <path d="M760 636 c0 -8 5 -18 11 -21 5 -4 14 -18 19 -31 9 -23 30 -34 30 -15 0 16 -41 81 -51 81 -5 0 -9 -6 -9 -14z"/>
 <path d="M815 523 c4 -10 10 -57 13 -105 2 -49 8 -88 13 -88 10 0 12 153 3 188 -4 12 -13 22 -21 22 -11 0 -13 -5 -8 -17z"/>
 <path d="M140 447 c0 -53 5 -82 20 -110 11 -20 20 -42 20 -47 0 -29 195 -250 220 -250 21 0 8 17 -79 105 -122 123 -144 164 -149 283 -3 69 -8 92 -18 92 -11 0 -14 -18 -14 -73z"/>
 <path d="M543 143 c-13 -5 -19 -33 -7 -33 3 0 14 5 25 10 34 19 19 38 -18 23z"/>
 <path d="M470 125 c0 -8 5 -15 10 -15 6 0 10 7 10 15 0 8 -4 15 -10 15 -5 0 -10 -7 -10 -15z"/>
 </g>
<g id="layer20" fill="#8ff993" stroke="none">
 <path d="M650 711 c0 -5 6 -14 14 -20 8 -7 17 -23 20 -36 4 -14 13 -25 21 -25 21 0 19 8 -11 52 -25 36 -44 49 -44 29z"/>
 <path d="M340 640 c0 -11 7 -20 15 -20 8 0 15 9 15 20 0 11 -7 20 -15 20 -8 0 -15 -9 -15 -20z"/>
 <path d="M710 586 c0 -16 5 -26 15 -26 8 0 15 6 15 14 0 7 -7 19 -15 26 -13 11 -15 8 -15 -14z"/>
 <path d="M720 475 c0 -42 3 -55 15 -55 12 0 15 13 15 55 0 42 -3 55 -15 55 -12 0 -15 -13 -15 -55z"/>
 <path d="M320 513 c-1 -20 66 -142 78 -142 14 -1 12 12 -15 87 -9 23 -22 42 -29 42 -8 0 -14 5 -14 10 0 11 -20 14 -20 3z"/>
 <path d="M20 440 c0 -78 16 -78 18 0 0 33 -3 60 -8 60 -6 0 -10 -27 -10 -60z"/>
 <path d="M30 300 c0 -27 55 -114 97 -155 81 -78 197 -145 250 -145 26 0 -4 28 -37 35 -69 15 -205 128 -246 205 -32 60 -64 90 -64 60z"/>
 <path d="M390 220 c0 -47 3 -60 15 -60 12 0 15 13 15 60 0 47 -3 60 -15 60 -12 0 -15 -13 -15 -60z"/>
 <path d="M715 99 c-4 -6 -5 -13 -2 -16 7 -7 27 6 27 18 0 12 -17 12 -25 -2z"/>
 <path d="M440 85 c0 -8 7 -15 15 -15 9 0 33 -9 55 -20 46 -24 130 -28 130 -6 0 9 -18 16 -56 21 -30 3 -71 13 -89 21 -44 18 -55 18 -55 -1z"/>
 </g>
<g id="layer21" fill="#2ab130" stroke="none">
 <path d="M390 805 c0 -8 7 -15 15 -15 8 0 15 7 15 15 0 8 -7 15 -15 15 -8 0 -15 -7 -15 -15z"/>
 <path d="M510 804 c0 -17 22 -14 28 4 2 7 -3 12 -12 12 -9 0 -16 -7 -16 -16z"/>
 <path d="M265 766 c-85 -44 -185 -113 -185 -128 0 -18 36 -6 65 21 34 34 160 107 199 117 24 6 38 34 16 34 -5 0 -48 -20 -95 -44z"/>
 <path d="M620 761 c0 -10 30 -24 37 -17 3 3 2 9 -2 15 -8 13 -35 15 -35 2z"/>
 <path d="M312 708 c7 -20 68 -23 68 -4 0 12 -10 16 -36 16 -24 0 -34 -4 -32 -12z"/>
 <path d="M450 705 c0 -8 6 -15 13 -15 24 0 59 -47 64 -89 4 -25 11 -41 19 -41 20 0 17 34 -6 84 -26 57 -90 100 -90 61z"/>
 <path d="M710 687 c0 -3 16 -28 35 -57 33 -49 55 -106 55 -142 0 -9 4 -20 10 -23 5 -3 7 -18 5 -33 -2 -15 -7 -72 -10 -126 l-6 -100 21 19 c17 15 20 30 20 104 0 130 -13 186 -62 275 -25 44 -50 82 -56 84 -7 2 -12 1 -12 -1z"/>
 <path d="M145 573 c-22 -33 -25 -48 -25 -122 0 -78 3 -91 39 -165 32 -67 56 -97 134 -173 59 -59 102 -93 116 -93 11 0 21 5 21 10 0 6 -7 10 -16 10 -9 0 -54 37 -101 82 -65 64 -93 100 -124 161 -36 74 -39 85 -39 167 0 72 3 92 20 113 11 14 20 30 20 36 0 22 -20 10 -45 -26z"/>
 <path d="M652 238 c-7 -7 -12 -18 -12 -25 0 -8 -7 -16 -15 -19 -8 -4 -15 -12 -15 -19 0 -21 -59 -58 -91 -57 -19 0 -29 -4 -29 -14 0 -17 52 -14 87 4 32 17 103 102 103 123 0 22 -11 24 -28 7z"/>
 <path d="M411 183 c-1 -12 4 -25 9 -28 12 -7 12 2 0 30 -8 19 -9 19 -9 -2z"/>
 </g>
<g id="layer22" fill="#5cf765" stroke="none">
 <path d="M570 772 c0 -7 63 -42 75 -42 16 0 0 22 -25 35 -32 17 -50 19 -50 7z"/>
 <path d="M285 749 c-4 -6 -5 -13 -2 -16 7 -7 27 6 27 18 0 12 -17 12 -25 -2z"/>
 <path d="M365 660 c4 -19 2 -36 -5 -46 -19 -22 -7 -127 19 -160 15 -20 21 -41 21 -80 0 -41 4 -54 15 -54 21 0 20 91 0 131 -11 19 -16 58 -16 116 0 85 -10 123 -30 123 -7 0 -8 -12 -4 -30z"/>
 <path d="M690 680 c0 -5 5 -10 10 -10 6 0 10 5 10 10 0 6 -4 10 -10 10 -5 0 -10 -4 -10 -10z"/>
 <path d="M720 633 c0 -11 4 -23 10 -29 11 -11 12 -54 4 -136 -5 -49 -3 -59 11 -64 10 -4 21 -1 26 7 14 23 4 160 -15 196 -21 40 -36 50 -36 26z"/>
 <path d="M280 620 c0 -5 7 -10 15 -10 8 0 15 5 15 10 0 6 -7 10 -15 10 -8 0 -15 -4 -15 -10z"/>
 <path d="M27 483 c-4 -3 -7 -34 -7 -68 0 -44 5 -66 16 -75 8 -8 22 -29 30 -49 29 -69 77 -131 139 -181 80 -64 175 -108 175 -82 0 4 -28 21 -62 37 -93 44 -187 141 -221 228 -17 43 -27 86 -27 120 0 59 -21 93 -43 70z"/>
 <path d="M400 275 c0 -8 7 -15 15 -15 8 0 15 7 15 15 0 8 -7 15 -15 15 -8 0 -15 -7 -15 -15z"/>
 <path d="M410 132 c0 -14 16 -28 53 -44 45 -21 47 -22 47 -5 0 6 -23 22 -50 34 -28 12 -50 19 -50 15z"/>
 <path d="M650 100 c-14 -4 -46 -8 -72 -9 -36 -1 -48 -5 -48 -16 0 -12 15 -15 74 -15 82 0 106 6 106 25 0 10 -26 29 -33 24 -1 -1 -13 -5 -27 -9z"/>
 </g>
<g id="layer23" fill="#31d138" stroke="none">
 <path d="M460 805 c0 -9 9 -15 25 -15 16 0 25 6 25 15 0 9 -9 15 -25 15 -16 0 -25 -6 -25 -15z"/>
 <path d="M245 749 c-38 -22 -83 -53 -100 -69 -16 -15 -40 -33 -52 -39 -23 -11 -32 -51 -13 -51 5 0 30 19 54 43 56 53 87 75 159 112 31 16 57 33 57 37 0 17 -38 5 -105 -33z"/>
 <path d="M660 732 c0 -14 39 -46 47 -39 3 4 -2 16 -12 27 -19 21 -35 26 -35 12z"/>
 <path d="M380 705 c0 -11 11 -15 36 -15 46 0 70 -14 90 -51 20 -40 13 -70 -42 -179 -49 -97 -50 -100 -29 -100 8 0 15 5 15 10 0 6 16 36 35 66 19 30 35 58 35 63 0 5 7 14 15 21 21 17 19 88 -3 129 -10 19 -34 43 -53 53 -42 22 -99 24 -99 3z"/>
 <path d="M720 664 c0 -3 9 -19 21 -35 61 -85 75 -269 34 -431 -10 -41 20 -37 35 5 17 48 24 224 11 285 -15 70 -101 220 -101 176z"/>
 <path d="M173 632 c-61 -92 -65 -106 -61 -197 5 -114 53 -209 155 -311 69 -69 93 -86 93 -66 0 4 -28 34 -61 67 -114 111 -159 205 -159 328 0 83 7 103 51 155 16 18 29 37 29 42 0 20 -29 9 -47 -18z"/>
 <path d="M674 265 c-7 -19 -14 -38 -14 -43 0 -15 -70 -91 -90 -97 -11 -4 -20 -13 -20 -21 0 -28 35 -13 83 37 49 51 77 101 77 139 0 31 -20 24 -36 -15z"/>
 <path d="M400 161 c0 -11 67 -71 80 -71 6 0 10 7 10 15 0 8 -6 15 -14 15 -8 0 -23 11 -34 25 -20 25 -42 33 -42 16z"/>
 </g>
<g id="layer24" fill="#37e83e" stroke="none">
 <path d="M520 795 c0 -8 5 -15 10 -15 6 0 10 7 10 15 0 8 -4 15 -10 15 -5 0 -10 -7 -10 -15z"/>
 <path d="M590 770 c0 -5 7 -10 15 -10 8 0 15 5 15 10 0 6 -7 10 -15 10 -8 0 -15 -4 -15 -10z"/>
 <path d="M229 727 c-20 -12 -58 -42 -83 -65 -25 -23 -57 -47 -71 -52 -18 -7 -25 -17 -25 -36 0 -29 4 -27 58 20 26 23 27 20 6 -23 -13 -25 -15 -54 -12 -129 6 -137 39 -207 153 -319 76 -75 115 -100 115 -73 0 6 -4 10 -9 10 -5 0 -41 32 -80 70 -48 48 -83 94 -108 143 -33 65 -37 81 -41 169 -4 96 -4 99 27 147 18 27 43 57 57 66 14 9 23 23 22 33 -2 9 8 22 25 30 28 13 37 32 15 32 -7 0 -29 -11 -49 -23z"/>
 <path d="M310 697 c0 -12 17 -16 81 -19 66 -3 83 -7 95 -23 25 -33 17 -84 -26 -161 -42 -77 -50 -114 -25 -114 8 0 15 8 15 19 0 10 8 29 18 42 33 43 53 93 59 145 5 46 3 54 -25 85 -29 32 -34 34 -111 37 -67 3 -81 2 -81 -11z"/>
 <path d="M756 595 c4 -16 13 -37 20 -45 23 -24 17 20 -6 50 l-21 25 7 -30z"/>
 <path d="M780 500 c0 -11 7 -20 15 -20 8 0 15 9 15 20 0 11 -7 20 -15 20 -8 0 -15 -9 -15 -20z"/>
 <path d="M787 368 c-3 -51 -10 -104 -15 -118 -5 -14 -12 -42 -16 -63 -6 -34 -5 -38 11 -35 12 2 20 17 26 43 4 22 12 60 17 85 14 73 12 180 -4 180 -10 0 -15 -24 -19 -92z"/>
 <path d="M706 333 c-7 -16 -14 -40 -14 -55 1 -56 -88 -168 -133 -168 -10 0 -19 -7 -19 -15 0 -19 13 -19 53 1 73 37 130 122 141 212 7 58 -5 69 -28 25z"/>
 <path d="M490 95 c0 -8 5 -15 10 -15 6 0 10 7 10 15 0 8 -4 15 -10 15 -5 0 -10 -7 -10 -15z"/>
 <path d="M390 20 c0 -5 7 -10 16 -10 8 0 12 5 9 10 -3 6 -10 10 -16 10 -5 0 -9 -4 -9 -10z"/>
 </g>
<g id="layer25" fill="#4bf551" stroke="none">
 <path d="M540 785 c0 -8 5 -15 10 -15 6 0 10 7 10 15 0 8 -4 15 -10 15 -5 0 -10 -7 -10 -15z"/>
 <path d="M580 771 c0 -12 39 -25 48 -16 7 7 -17 25 -35 25 -7 0 -13 -4 -13 -9z"/>
 <path d="M660 721 c0 -13 29 -35 37 -28 7 8 -15 37 -28 37 -5 0 -9 -4 -9 -9z"/>
 <path d="M235 699 c-4 -6 -5 -13 -2 -16 7 -7 27 6 27 18 0 12 -17 12 -25 -2z"/>
 <path d="M310 687 c0 -10 11 -17 33 -19 l32 -3 5 -100 c3 -55 11 -111 17 -125 6 -14 15 -38 18 -55 7 -29 7 -30 18 -7 7 16 6 38 -3 78 -11 47 -11 57 0 64 10 6 11 12 3 22 -6 7 -13 39 -15 71 -3 32 -9 62 -15 68 -6 6 -29 13 -52 16 -33 5 -41 3 -41 -10z"/>
 <path d="M710 666 c0 -3 9 -21 21 -40 29 -50 40 -194 16 -208 -27 -15 -15 -68 15 -68 17 0 30 56 30 123 -1 56 -6 79 -34 132 -18 36 -36 65 -40 65 -5 0 -8 -2 -8 -4z"/>
 <path d="M284 585 c3 -9 6 -19 6 -21 0 -2 7 -4 16 -4 22 0 13 34 -10 38 -14 3 -17 0 -12 -13z"/>
 <path d="M32 528 c-17 -17 -15 -47 3 -54 11 -5 15 -21 15 -60 0 -143 107 -285 285 -378 117 -61 112 -36 -8 35 -65 39 -187 147 -187 166 0 5 -9 25 -20 45 -19 35 -29 88 -35 178 -3 61 -3 60 -19 60 -8 0 -16 5 -18 10 -2 7 -8 6 -16 -2z"/>
 <path d="M407 323 c-13 -12 -7 -33 8 -33 8 0 15 9 15 20 0 20 -11 26 -23 13z"/>
 <path d="M400 250 c0 -5 7 -10 15 -10 8 0 15 5 15 10 0 6 -7 10 -15 10 -8 0 -15 -4 -15 -10z"/>
 <path d="M700 153 c0 -19 -91 -53 -140 -53 -40 0 -50 -3 -50 -16 0 -15 10 -16 78 -10 42 4 89 6 103 6 32 0 52 21 47 52 -3 21 -38 40 -38 21z"/>
 <path d="M755 149 c-4 -6 -5 -13 -2 -16 7 -7 27 6 27 18 0 12 -17 12 -25 -2z"/>
 <path d="M414 135 c3 -9 6 -19 6 -21 0 -2 7 -4 15 -4 21 0 19 13 -6 29 -19 11 -21 11 -15 -4z"/>
 </g>
<g id="layer26" fill="#3af345" stroke="none">
 <path d="M232 718 c-12 -12 -17 -38 -7 -38 12 0 55 33 55 41 0 13 -34 11 -48 -3z"/>
 <path d="M370 691 c0 -7 7 -19 15 -27 13 -14 22 -83 17 -134 -3 -28 20 -100 32 -100 20 0 86 134 86 173 0 55 -34 88 -98 95 -37 3 -52 1 -52 -7z"/>
 <path d="M105 610 c-10 -11 -26 -22 -36 -25 -24 -8 -36 -65 -17 -79 8 -7 15 -33 16 -66 3 -79 21 -160 38 -167 8 -3 14 -14 14 -25 0 -40 185 -207 205 -186 3 3 -26 36 -64 75 -69 68 -110 137 -133 218 -17 63 -10 184 12 228 11 21 20 40 20 42 0 13 -39 3 -55 -15z"/>
 <path d="M740 624 c0 -5 7 -19 15 -30 8 -10 15 -14 15 -8 0 5 -7 19 -15 30 -8 10 -15 14 -15 8z"/>
 <path d="M772 483 c1 -89 -6 -113 -31 -106 -21 5 -31 -20 -31 -80 0 -64 -68 -165 -122 -183 -25 -8 -23 -34 2 -34 12 0 43 11 70 25 40 20 50 22 50 10 0 -8 5 -15 10 -15 17 0 50 39 50 60 0 10 7 45 15 77 18 68 30 216 19 241 -4 9 -6 26 -5 38 1 11 -5 26 -13 33 -13 11 -15 3 -14 -66z"/>
 <path d="M416 365 c-10 -26 -7 -35 9 -35 17 0 19 18 6 38 -7 11 -10 10 -15 -3z"/>
 <path d="M350 40 c0 -5 7 -10 15 -10 8 0 15 5 15 10 0 6 -7 10 -15 10 -8 0 -15 -4 -15 -10z"/>
 </g>
<g id="layer27" fill="#fcfdfd" stroke="none">
 <path d="M0 420 l0 -420 156 0 c173 0 169 -2 79 55 -60 37 -138 121 -168 180 -27 53 -31 72 -35 161 -4 106 7 160 50 234 22 39 128 133 155 139 10 2 23 7 28 11 22 17 139 32 222 28 70 -3 99 -10 145 -32 71 -35 146 -113 189 -197 28 -54 33 -78 37 -152 3 -58 1 -92 -7 -100 -6 -6 -11 -21 -11 -33 0 -36 -49 -125 -94 -172 -76 -80 -175 -103 -262 -61 -57 27 -64 38 -69 100 -2 30 -2 45 1 34 9 -30 45 -65 67 -65 115 0 244 153 255 304 9 113 -36 238 -105 295 -76 63 -202 89 -276 57 -46 -19 -130 -113 -167 -186 -30 -60 -32 -69 -28 -145 6 -120 44 -191 170 -319 67 -68 97 -107 94 -118 -4 -17 12 -18 220 -18 l224 0 0 420 0 420 -435 0 -435 0 0 -420z m519 295 c52 -47 60 -99 25 -164 -32 -61 -56 -103 -79 -138 -10 -15 -26 -53 -36 -83 l-17 -55 -7 50 c-4 28 -20 74 -36 103 -24 43 -26 52 -13 52 13 0 15 5 8 23 -4 12 -8 49 -8 81 -1 44 -5 62 -18 70 -31 19 -44 -6 -32 -64 7 -32 7 -47 1 -41 -19 19 -21 109 -3 136 27 40 75 65 128 65 41 0 54 -5 87 -35z"/>
 </g>

</svg>